<svg width="37" height="29" viewBox="0 0 37 29" fill="none" xmlns="http://www.w3.org/2000/svg">
<g clip-path="url(#clip0_9_316)">
<path d="M0 2.36525V9.1182C0 11.1749 2.50611 12.2719 4.03763 10.8322L11.3471 4.0792C12.9483 2.6052 11.904 0 9.71119 0H2.40169C1.07902 0 0 1.06265 0 2.36525Z" fill="white"/>
<path d="M34.5983 0H27.2888C25.1308 0 24.0517 2.6052 25.6529 4.0792L32.9624 10.8322C34.4939 12.2376 37 11.1749 37 9.1182V2.36525C37 1.06265 35.921 0 34.5983 0Z" fill="white"/>
<path d="M20.1533 16.4884L32.9624 28.3489C34.4939 29.7543 37 28.6917 37 26.6349V19.8134C37 19.1621 36.7215 18.5451 36.2342 18.0995L20.1533 3.18814C19.2135 2.33117 17.7865 2.33117 16.8467 3.18814L0.765757 18.0995C0.278457 18.5451 0 19.1621 0 19.8134V26.6349C0 28.6917 2.50611 29.7886 4.03763 28.3489L16.8467 16.4884C17.7865 15.6314 19.2135 15.6314 20.1533 16.4884Z" fill="white"/>
</g>
<defs>
<clipPath id="clip0_9_316">
<rect width="37" height="29" fill="white"/>
</clipPath>
</defs>
</svg>
