<svg width="680" height="68" viewBox="0 0 680 68" fill="none" xmlns="http://www.w3.org/2000/svg">
<path d="M454.195 52.2151C453.534 52.2408 452.866 52.2589 452.218 52.2969C451.798 52.3206 451.617 52.2534 451.336 52.2185C451.242 52.2064 451.141 52.182 451.055 52.1852C450.4 52.2109 449.746 52.2397 449.091 52.2685C448.892 52.3288 448.766 52.4089 448.459 52.4386C448.159 52.4668 447.805 52.4674 447.471 52.4818C447.03 52.4994 446.589 52.5171 446.149 52.5333C445.928 52.5413 445.748 52.5708 445.675 52.6263C445.662 52.6355 445.809 52.6583 445.89 52.672C446.157 52.7176 446.419 52.7694 446.713 52.8042C446.994 52.8375 447.341 52.7816 447.642 52.8241C448.318 52.9197 448.325 52.9182 448.839 52.8988C449.279 52.8812 449.72 52.862 450.161 52.8489C450.248 52.8457 450.348 52.8686 450.442 52.8807C450.723 52.914 450.904 52.9905 451.318 52.9606C451.632 52.937 451.979 52.9318 452.306 52.9189C452.581 52.963 452.835 53.0133 453.129 53.0481C453.404 53.0814 453.484 53.1074 453.338 53.1522C453.205 53.1939 453.018 53.2111 452.771 53.2146C452.55 53.2166 452.33 53.2308 452.11 53.2388C451.996 53.2436 451.889 53.2469 451.782 53.2517C451.362 53.2693 451.362 53.2693 450.592 53.1723C450.291 53.1344 449.951 53.1888 449.664 53.1524C449.469 53.1282 449.302 53.0916 449.115 53.0658C449.034 53.0552 448.907 53.0539 448.807 53.0571C448.473 53.0685 448.139 53.0767 447.819 53.0973C447.592 53.1115 447.459 53.1547 447.486 53.1977C447.493 53.2146 447.654 53.2389 447.747 53.2403C447.961 53.243 448.188 53.2211 448.395 53.2314C448.596 53.2419 448.803 53.2722 448.95 53.3058C449.252 53.3759 449.592 53.3123 449.879 53.3303C450.18 53.3497 450.428 53.4107 450.716 53.4471C450.789 53.4562 450.93 53.4406 451.043 53.4358C451.37 53.4245 451.698 53.4147 452.025 53.4034C452.299 53.4474 452.594 53.4869 452.842 53.5371C453.29 53.6285 453.772 53.663 454.352 53.6175C454.679 53.5923 455 53.601 455.261 53.6604C455.529 53.7214 455.837 53.7148 456.177 53.7019C456.491 53.689 456.811 53.6547 457.132 53.6971C457.828 53.7912 457.835 53.7958 458.656 53.7575C458.903 53.7463 459.09 53.7429 459.278 53.7779C459.452 53.8099 459.639 53.8372 459.82 53.8676C460.147 53.8563 460.481 53.845 460.808 53.8321C461.229 53.8145 461.463 53.8356 461.564 53.9214C461.625 53.9736 461.653 54.0211 461.8 54.0562C461.974 54.0989 462.161 54.0971 462.415 54.0843C462.655 54.0732 462.829 54.056 462.928 54.0005C462.968 53.9774 463.048 53.9557 463.121 53.9372C463.181 53.9232 463.274 53.9016 463.328 53.9046C463.428 53.9105 463.562 53.9272 463.596 53.9471C463.925 54.1324 463.925 54.134 464.26 54.1872C464.628 54.2464 465.01 54.2995 465.344 54.3665C465.646 54.4259 465.946 54.3993 466.273 54.3987C466.521 54.3983 466.681 54.438 466.662 54.478C466.649 54.501 466.556 54.535 466.476 54.5382C465.821 54.57 465.16 54.5973 464.499 54.62C464.419 54.6232 464.319 54.5957 464.225 54.582C464.037 54.5547 463.87 54.512 463.669 54.5031C463.469 54.4942 463.235 54.5177 463.015 54.5258C462.795 54.5338 462.561 54.5542 462.36 54.5423C462.16 54.5303 461.999 54.4861 461.811 54.4572C461.724 54.4435 461.604 54.4238 461.531 54.4285C461.043 54.4662 460.682 54.4161 460.334 54.3491C460.26 54.3354 460.133 54.3264 460.04 54.3297C459.265 54.3571 458.497 54.3892 457.723 54.4197C457.409 54.4326 457.154 54.3792 457.086 54.2887C457.052 54.2381 456.985 54.1875 456.984 54.1368C456.983 54.0446 456.615 53.9946 456.348 54.0058C455.907 54.0219 455.46 54.035 455.026 54.0588C454.672 54.0778 454.371 54.0599 454.13 54.005C453.848 53.9425 453.528 53.9554 453.208 53.9728C452.967 53.9855 452.901 54.0363 452.916 54.1638C452.93 54.2667 452.817 54.2992 452.383 54.3169C451.836 54.3393 451.281 54.3618 450.727 54.3796C450.64 54.3829 450.54 54.3569 450.453 54.3433C450.266 54.3159 450.098 54.2717 449.897 54.2628C449.697 54.2524 449.463 54.2758 449.243 54.2854C449.023 54.2935 448.789 54.3154 448.588 54.305C448.388 54.2946 448.22 54.2488 448.04 54.2199C447.953 54.2063 447.845 54.1865 447.759 54.1897C447.318 54.2027 446.877 54.222 446.437 54.2396C445.942 54.2589 445.942 54.2589 445.24 54.1649C444.919 54.1224 444.598 54.1568 444.284 54.1696C443.951 54.1825 443.637 54.1892 443.375 54.1282C443.201 54.0885 443.007 54.0643 442.8 54.0723C442.246 54.0917 441.698 54.1157 441.144 54.1351C441.051 54.1384 440.924 54.1309 440.85 54.1172C440.495 54.0533 440.147 54.0032 439.653 54.0363C439.226 54.0647 438.765 54.067 438.338 54.0939C438.104 54.1081 437.998 54.1575 438.045 54.1958C438.072 54.2157 438.213 54.2385 438.306 54.2384C438.52 54.2395 438.753 54.2161 438.954 54.2249C439.368 54.2427 439.577 54.3714 440.118 54.3351C440.438 54.313 440.772 54.3048 441.106 54.298C441.193 54.2963 441.287 54.3254 441.38 54.3406C441.648 54.3816 441.883 54.4349 442.27 54.4066C442.59 54.3846 442.931 54.3778 443.258 54.365C443.779 54.3441 443.779 54.3456 444.455 54.4382C444.776 54.4822 445.096 54.4463 445.41 54.435C445.644 54.4269 445.864 54.4111 446.051 54.4323C446.339 54.4641 446.547 54.5375 446.901 54.5322C447.235 54.527 447.562 54.505 447.896 54.4967C448.103 54.4917 448.297 54.516 448.465 54.5572C448.639 54.5984 448.826 54.6165 449.053 54.6069C449.38 54.594 449.714 54.5781 450.048 54.5698C450.142 54.5681 450.249 54.5817 450.336 54.5939C450.523 54.6212 450.704 54.6531 450.885 54.682C451.212 54.6722 451.546 54.6686 451.866 54.6496C452.113 54.6353 452.287 54.6412 452.488 54.6716C452.742 54.7126 452.95 54.786 453.364 54.7499C453.571 54.7327 453.811 54.7369 454.018 54.7211C454.272 54.7007 454.446 54.7081 454.627 54.7539C454.968 54.8409 455.396 54.8417 455.837 54.8071C456.317 54.7694 456.678 54.8118 457.04 54.8788C457.422 54.9488 457.422 54.9472 457.718 55.1172C457.805 55.1662 458.052 55.1889 458.259 55.1793C458.607 55.1633 458.907 55.1705 459.162 55.2284C459.43 55.2909 459.75 55.2827 460.078 55.2652C460.512 55.2414 460.946 55.2207 461.301 55.3092C461.475 55.3519 461.662 55.3623 461.896 55.3512C462.557 55.3224 463.225 55.3043 463.872 55.2694C464.266 55.2472 464.494 55.296 464.762 55.337C465.123 55.3932 465.518 55.4432 465.519 55.5646C465.52 55.5846 465.613 55.6074 465.694 55.6227C465.868 55.6546 466.055 55.6819 466.236 55.7124C466.504 55.758 466.765 55.7959 467.132 55.7707C467.452 55.7502 467.793 55.7435 468.12 55.7291C468.447 55.7147 468.748 55.7065 469.043 55.7643C469.384 55.8298 469.746 55.8922 470.134 55.9407C470.408 55.9755 470.768 55.915 471.063 55.9621C471.243 55.991 471.417 56.0245 471.611 56.0487C471.692 56.0593 471.819 56.0514 471.925 56.0482C472.146 56.0416 472.373 56.0366 472.587 56.0209C472.834 56.0036 473.021 56.0063 473.208 56.0413C473.382 56.0733 473.556 56.1175 473.757 56.1264C474.058 56.1397 474.391 56.0777 474.692 56.1478C474.847 56.1829 475.041 56.2164 475.241 56.2268C475.442 56.2372 475.675 56.2137 475.889 56.2149C475.983 56.2147 476.096 56.2391 476.15 56.259C476.184 56.2697 476.137 56.2989 476.091 56.3144C476.031 56.3329 475.944 56.3577 475.857 56.3609C475.196 56.3897 474.535 56.4139 473.874 56.4412C473.48 56.4572 473.48 56.4572 472.684 56.3618C472.497 56.3391 472.29 56.344 472.056 56.3552C471.742 56.3696 471.422 56.3963 471.094 56.3692C470.665 56.2654 470.138 56.2571 469.577 56.298C469.343 56.3153 469.129 56.3157 468.955 56.2868C468.587 56.2291 468.199 56.176 467.871 56.1074C467.616 56.0541 467.496 56.0497 467.39 56.1236C467.357 56.1467 467.324 56.1714 467.331 56.1929C467.372 56.2696 467.446 56.3448 467.487 56.4215C467.501 56.443 467.448 56.4677 467.415 56.4908C467.309 56.5555 467.168 56.5511 466.934 56.4977C466.699 56.4444 466.418 56.4095 466.044 56.4348C465.724 56.4568 465.377 56.4544 465.056 56.478C464.562 56.5126 464.214 56.4641 463.859 56.3986C463.786 56.3849 463.659 56.3775 463.565 56.3807C462.57 56.4178 461.582 56.4594 460.587 56.4965C460.373 56.5045 460.179 56.4818 460.012 56.4406C459.838 56.3995 459.644 56.3783 459.43 56.3863C458.548 56.4201 457.667 56.4509 456.786 56.4923C456.425 56.5099 456.138 56.4904 455.89 56.437C455.702 56.3974 455.528 56.3854 455.295 56.3905C455.041 56.3955 454.861 56.4112 454.734 56.456C454.615 56.4992 454.702 56.5251 454.969 56.5585C455.257 56.5948 455.525 56.642 455.799 56.6846C456.02 56.678 456.24 56.6653 456.454 56.6665C456.547 56.6663 456.634 56.6939 456.728 56.7091C456.996 56.7531 457.244 56.7973 457.624 56.772C457.945 56.75 458.285 56.7448 458.612 56.7304C459.066 56.7127 459.066 56.7127 459.802 56.8082C459.99 56.8324 460.19 56.8306 460.431 56.8163C460.637 56.8052 460.852 56.8263 460.999 56.8722C461.059 56.8905 461.04 56.9213 460.914 57.0229C460.915 57.0982 461.055 57.0641 461.101 57.0149C461.174 56.9441 461.033 56.9213 460.766 56.9602C460.58 56.9881 460.487 57.0282 460.534 57.0604C460.561 57.0773 460.688 57.0986 460.914 57.0229C461.501 56.9297 461.948 56.9181 462.376 56.8928C462.629 56.8786 462.79 56.8844 462.991 56.924C463.232 56.9712 463.473 57.0215 463.867 56.9963C464.294 56.9679 464.748 56.964 465.182 56.9402C465.583 56.918 465.791 56.9852 466.045 57.0247C466.353 57.0718 466.693 57.0175 466.974 57.0446C467.268 57.0718 467.476 57.139 467.817 57.1507C468.311 57.1084 468.626 57.1846 469 57.2347C469.295 57.2726 469.642 57.2382 469.955 57.2207C470.309 57.2017 470.603 57.2181 470.851 57.273C471.133 57.3355 471.447 57.3211 471.767 57.3067C472.515 57.2747 472.541 57.27 472.977 57.3537C473.291 57.4147 473.592 57.3865 473.906 57.3783C474.18 57.4193 474.448 57.4633 474.736 57.4997C474.809 57.5088 474.949 57.4932 475.063 57.4884C475.39 57.4755 475.724 57.4627 476.051 57.4498C476.271 57.4417 476.505 57.4183 476.706 57.4272C476.906 57.4376 477.074 57.4818 477.254 57.5107C477.435 57.5396 477.623 57.5685 477.797 57.5989C478.064 57.6445 478.319 57.6825 478.692 57.6588C479.013 57.6382 479.347 57.6315 479.681 57.6171C480.101 57.5995 480.088 57.6041 480.871 57.6949C481.292 57.7449 481.726 57.6827 482.153 57.6758C482.367 57.6724 482.574 57.6889 482.722 57.7332C482.782 57.7515 482.763 57.7823 482.783 57.8084C481.681 57.8518 480.573 57.889 479.484 57.9416C479.064 57.9623 478.843 57.9074 478.615 57.8617C478.24 57.7886 477.747 57.897 477.392 57.8024C477.177 57.7459 476.869 57.7142 476.502 57.7425C476.289 57.7582 476.061 57.7571 475.841 57.7713C475.28 57.806 474.766 57.8085 474.317 57.7032C474.163 57.6666 473.942 57.6471 473.782 57.612C473.594 57.5739 473.413 57.5527 473.193 57.5608C472.198 57.5994 471.21 57.638 470.222 57.6796C470.135 57.6828 470.048 57.706 469.975 57.7231C469.788 57.7664 469.849 57.8001 470.15 57.8272C470.25 57.8363 470.331 57.8561 470.424 57.8713C470.605 57.9002 470.773 57.946 470.973 57.9564C471.174 57.9668 471.407 57.9449 471.628 57.9368C471.848 57.9288 472.082 57.9053 472.282 57.9142C472.483 57.9246 472.65 57.9689 472.838 57.9962C472.925 58.0099 473.032 58.0327 473.119 58.031C473.56 58.021 473.994 58.0034 474.434 57.9888C474.709 58.0298 474.943 58.0893 475.271 58.1026C475.478 58.1114 475.698 58.0941 475.912 58.0968C476.006 58.0982 476.126 58.1211 476.173 58.1409C476.2 58.1532 476.113 58.1841 476.047 58.1996C475.794 58.2584 475.446 58.2482 475.133 58.2672C474.792 58.2878 474.485 58.2822 474.223 58.2227C474.049 58.183 473.855 58.1619 473.641 58.1699C473.087 58.1909 472.54 58.2149 471.985 58.2327C471.892 58.236 471.778 58.2223 471.691 58.2117C470.989 58.1192 470.989 58.1162 470.494 58.137C469.767 58.1674 469.767 58.1674 469.278 58.0869C469.184 58.0717 469.084 58.0427 469.003 58.0443C468.229 58.0703 467.461 58.0962 466.693 58.1328C466.439 58.144 466.266 58.1443 466.078 58.1047C465.917 58.0712 465.73 58.0331 465.529 58.0242C465.322 58.0154 465.095 58.0388 464.875 58.0469C464.655 58.0549 464.421 58.0753 464.227 58.0634C464.027 58.0514 463.852 58.0087 463.678 57.9783C463.497 57.9463 463.304 57.9482 463.057 57.9609C462.296 57.9976 462.289 57.993 461.533 57.8991C461.446 57.8885 461.332 57.8764 461.239 57.8796C460.684 57.899 460.137 57.923 459.583 57.9424C459.369 57.9504 459.161 57.9308 459.014 57.8865C458.954 57.8682 458.973 57.8374 458.933 57.7776C458.886 57.7638 458.939 57.7883 458.953 57.8114C459.053 57.8081 459.173 57.811 459.247 57.7985C459.433 57.769 459.526 57.7305 459.479 57.6983C459.452 57.6814 459.325 57.6601 459.245 57.6603C459.098 57.6605 458.972 57.6946 458.933 57.7776C458.512 57.829 458.065 57.8406 457.631 57.8659C457.377 57.8817 457.217 57.8743 457.016 57.8347C456.775 57.786 456.527 57.7387 456.133 57.764C455.706 57.7924 455.252 57.7978 454.811 57.8201C454.304 57.8456 454.081 57.7077 453.654 57.7115C453.213 57.7153 452.772 57.7422 452.332 57.7614C451.944 57.7774 451.944 57.7774 451.141 57.679C450.847 57.6426 450.5 57.697 450.213 57.6591C450.019 57.6348 449.851 57.5982 449.664 57.5725C449.584 57.5618 449.457 57.5621 449.356 57.5653C448.802 57.5847 448.241 57.598 447.707 57.6327C447.1 57.6737 446.638 57.6315 446.203 57.5416C445.655 57.5594 445.101 57.5696 444.56 57.5998C444.166 57.6219 443.938 57.5716 443.671 57.5306C443.577 57.517 443.497 57.4941 443.396 57.4881C443.296 57.4821 443.176 57.4946 443.069 57.4994C442.628 57.5171 442.174 57.5256 441.747 57.5539C441.22 57.5902 441.018 57.4646 440.61 57.4499C440.337 57.5257 440.191 57.6288 439.65 57.6375C439.209 57.6444 438.769 57.6697 438.328 57.6874C438.108 57.6955 437.887 57.7051 437.667 57.7131C437.313 57.7276 437.147 57.7878 437.221 57.8798C437.262 57.9304 437.296 57.9811 437.33 58.0317C437.398 58.1223 437.232 58.1994 436.951 58.2106C436.177 58.2411 435.409 58.2732 434.634 58.3007C434.427 58.3087 434.227 58.2829 434.059 58.2417C433.885 58.2006 433.691 58.1825 433.477 58.1905C432.703 58.221 431.935 58.2531 431.16 58.2806C431.073 58.2838 430.96 58.2686 430.873 58.2565C430.685 58.2292 430.504 58.1972 430.324 58.1683C429.883 58.1829 429.449 58.1929 429.015 58.2121C428.314 58.241 428.314 58.2425 427.798 58.1589C427.705 58.1437 427.611 58.1147 427.524 58.1164C427.19 58.1231 426.863 58.139 426.529 58.1534C425.547 58.1951 425.547 58.1951 425.259 58.1495C424.998 58.1069 424.764 58.0551 424.37 58.0804C423.943 58.1088 423.489 58.1188 423.048 58.1349C422.721 58.1462 422.394 58.1591 422.066 58.1627C421.979 58.1644 421.886 58.1354 421.792 58.1202C421.524 58.073 421.263 58.0351 420.896 58.0618C420.682 58.0775 420.455 58.081 420.235 58.0891C419.661 58.1116 419.661 58.1116 418.718 58.021C418.624 58.012 418.51 58.0014 418.417 58.0062C417.642 58.0352 416.874 58.0673 416.1 58.0947C416.006 58.098 415.892 58.0889 415.799 58.0814C414.742 57.9941 414.742 57.9941 413.62 58.0391C413.193 58.0552 413.18 58.0614 412.731 57.9807C412.53 57.9457 412.363 57.9291 412.129 57.9403C411.248 57.9787 410.36 58.0048 409.485 58.0494C409.091 58.0685 408.864 58.0228 408.596 57.9818C408.502 57.9681 408.402 57.9376 408.321 57.9392C407.44 57.97 406.558 58.0068 405.677 58.0375C405.597 58.0408 405.496 58.0102 405.403 57.9965C405.222 57.9692 405.048 57.928 404.847 57.9191C404.64 57.9103 404.413 57.9337 404.186 57.9418C403.632 57.9627 403.632 57.9612 402.989 57.8717C402.902 57.8595 402.789 57.8428 402.702 57.8461C401.82 57.8783 400.932 57.906 400.058 57.9521C399.557 57.9775 399.215 57.9335 398.861 57.8696C398.787 57.8559 398.66 57.85 398.567 57.8532C397.572 57.8903 396.583 57.932 395.588 57.969C395.381 57.9771 395.181 57.9513 395.013 57.9116C394.745 57.8491 394.431 57.8573 394.097 57.8717C393.33 57.9053 393.323 57.9038 392.868 57.8309C392.774 57.8157 392.694 57.7958 392.593 57.7883C392.5 57.7808 392.379 57.7856 392.279 57.7889C391.839 57.805 391.398 57.8227 390.957 57.8403C390.516 57.858 390.069 57.868 389.635 57.8949C389.101 57.9281 388.846 57.8286 388.471 57.7832C387.923 57.8041 387.362 57.8174 386.822 57.8506C386.408 57.8759 386.213 57.8086 385.939 57.7738C385.845 57.7616 385.745 57.7357 385.658 57.7389C384.663 57.7744 383.668 57.813 382.68 57.8562C382.439 57.8659 382.279 57.8539 382.078 57.8173C381.63 57.7352 381.609 57.7383 380.862 57.7703C380.534 57.7847 380.221 57.7975 379.939 57.735C379.691 57.6786 379.391 57.6653 379.037 57.6843C378.603 57.7081 378.155 57.7212 377.715 57.7374C377.274 57.755 376.833 57.7788 376.392 57.7873C376.039 57.7956 375.824 57.7237 375.543 57.6874C375.456 57.6768 375.336 57.6754 375.235 57.6787C374.795 57.6933 374.341 57.7048 373.913 57.7317C373.393 57.7648 373.104 57.6808 372.736 57.6323C372.656 57.6217 372.522 57.6281 372.422 57.6329C371.648 57.6619 370.88 57.6939 370.105 57.7244C369.831 57.6834 369.55 57.644 369.275 57.603C368.834 57.6191 368.394 57.6368 367.953 57.6529C367.619 57.6658 367.279 57.671 366.965 57.6946C366.558 57.726 366.356 57.6541 366.082 57.6193C365.988 57.6072 365.888 57.5812 365.801 57.5844C365.247 57.6023 364.692 57.6217 364.145 57.6488C363.624 57.6758 363.415 57.5379 362.988 57.5402C362.547 57.5425 362.093 57.5632 361.666 57.5916C361.172 57.6247 360.824 57.5762 360.469 57.5107C360.395 57.497 360.268 57.4896 360.175 57.4928C359.621 57.5122 359.073 57.5362 358.519 57.5556C358.425 57.5588 358.312 57.5514 358.218 57.5423C357.161 57.4535 357.161 57.452 356.701 57.4712C356.373 57.4841 356.04 57.5 355.706 57.5083C355.612 57.5115 355.498 57.4979 355.411 57.4857C354.715 57.3932 354.715 57.3917 354.215 57.411C353.774 57.4286 353.333 57.4463 352.892 57.464C352.618 57.423 352.337 57.3835 352.063 57.3425C351.515 57.3634 350.954 57.3798 350.413 57.4084C350.159 57.4211 349.992 57.4168 349.798 57.3787C349.557 57.333 349.316 57.2797 348.915 57.3065C348.488 57.3349 348.034 57.3388 347.6 57.3625C347.079 57.3911 346.864 57.2517 346.443 57.2539C346.002 57.2562 345.548 57.277 345.121 57.3054C344.627 57.3385 344.279 57.29 343.924 57.2245C343.85 57.2108 343.723 57.2034 343.63 57.2066C342.415 57.2533 341.206 57.2999 339.991 57.3496C339.243 57.3801 339.243 57.3817 337.819 57.2996C337.719 57.2937 337.611 57.2877 337.511 57.291C337.071 57.3056 336.616 57.3171 336.189 57.344C335.668 57.3771 335.38 57.2947 335.012 57.2446C334.932 57.234 334.805 57.2403 334.698 57.2436C334.364 57.2549 334.037 57.2694 333.703 57.2822C333.263 57.2999 332.822 57.3175 332.381 57.3352C332.107 57.2957 331.826 57.2547 331.551 57.2153C331.004 57.2362 330.443 57.2479 329.902 57.2811C329.488 57.3064 329.293 57.2422 329.019 57.2059C328.925 57.1937 328.825 57.1678 328.738 57.1695C327.743 57.205 326.748 57.2421 325.76 57.2868C325.353 57.3059 325.165 57.2371 324.89 57.2023C324.797 57.1917 324.69 57.1719 324.603 57.1751C323.942 57.1978 323.281 57.225 322.62 57.2523C322.246 57.2683 322.246 57.2683 321.43 57.1745C321.336 57.1639 321.229 57.1533 321.135 57.1566C319.039 57.237 316.949 57.3221 314.852 57.4025C314.638 57.4106 314.444 57.3879 314.277 57.3467C314.102 57.3055 313.908 57.2843 313.695 57.2924C312.813 57.3262 311.925 57.3569 311.05 57.3984C310.69 57.4159 310.402 57.3964 310.154 57.3431C309.967 57.3035 309.793 57.2884 309.559 57.298C309.119 57.3172 308.678 57.3334 308.237 57.351C307.797 57.3687 307.356 57.3864 306.915 57.404C306.474 57.4217 306.027 57.4317 305.593 57.4586C305.059 57.4917 304.797 57.3969 304.429 57.35C303.768 57.3742 303.107 57.3983 302.453 57.4241C301.571 57.4579 300.69 57.4947 299.808 57.527C299.728 57.5302 299.628 57.5027 299.534 57.489C299.26 57.4511 299.058 57.3977 298.651 57.4153C296.675 57.5002 294.685 57.5728 292.702 57.6561C292.288 57.6737 292.106 57.6079 291.825 57.5731C291.732 57.5625 291.625 57.5412 291.538 57.5444C290.436 57.5847 289.334 57.6297 288.233 57.6731C287.785 57.6907 287.785 57.6907 287.036 57.5968C286.949 57.5862 286.835 57.5725 286.741 57.5758C285.306 57.6305 283.877 57.6883 282.441 57.7446C282.227 57.7526 282.033 57.7315 281.859 57.6903C281.692 57.6491 281.491 57.6264 281.284 57.6344C279.962 57.6859 278.633 57.7358 277.318 57.7919C276.964 57.8079 276.67 57.7945 276.415 57.7397C276.234 57.7 276.054 57.6834 275.827 57.6931C273.843 57.7718 271.86 57.8475 269.877 57.9308C269.496 57.9468 269.229 57.9181 268.988 57.8678C268.794 57.8282 268.626 57.8208 268.386 57.8274C268.132 57.8355 267.979 57.8526 267.839 57.899C267.659 57.9592 267.547 58.0347 267.119 58.04C266.678 58.0454 266.231 58.0646 265.797 58.0915C265.383 58.1183 265.189 58.0495 264.928 58.0085C264.733 57.9797 264.553 57.9754 264.306 57.9896C264.079 58.0023 263.939 58.0287 263.806 58.078C263.513 58.183 263.487 58.1831 263.125 58.1176C262.931 58.0826 262.757 58.0553 262.543 58.0618C261.662 58.0941 260.78 58.1294 259.899 58.1663C259.391 58.1871 259.385 58.1902 259.003 58.1141C258.816 58.076 258.635 58.0578 258.415 58.0674C255.991 58.1638 253.567 58.2572 251.143 58.3582C250.769 58.3742 250.515 58.3423 250.247 58.2967C250.16 58.2815 250.073 58.2601 249.972 58.2542C249.872 58.2482 249.759 58.2545 249.652 58.2578C247.889 58.3269 246.119 58.393 244.363 58.4698C243.963 58.4874 243.748 58.4386 243.474 58.3991C243.38 58.3855 243.3 58.3641 243.199 58.3581C243.099 58.3537 242.979 58.3646 242.872 58.3694C241.109 58.4386 239.34 58.5046 237.584 58.5814C237.163 58.5991 236.982 58.5348 236.708 58.5015C236.614 58.4894 236.513 58.4665 236.427 58.4697C235.872 58.4876 235.325 58.5116 234.771 58.5325C233.448 58.5855 232.126 58.6355 230.804 58.69C230.297 58.7108 230.074 58.5745 229.647 58.5814C229.093 58.59 228.545 58.6217 227.991 58.6442C227.55 58.6618 227.109 58.678 226.669 58.6972C226.235 58.7148 226.235 58.7148 225.151 58.6276C225.058 58.6201 224.944 58.6095 224.851 58.6128C223.308 58.6723 221.759 58.7318 220.223 58.7959C219.869 58.8104 219.575 58.8032 219.321 58.7468C219.14 58.7072 218.953 58.6875 218.732 58.6971C216.415 58.7887 214.105 58.8803 211.787 58.9704C211.701 58.9736 211.587 58.9584 211.5 58.9463C211.313 58.919 211.132 58.887 210.951 58.8581C210.818 58.8937 210.645 58.9263 210.558 58.9663C210.439 59.0203 210.279 59.036 210.025 59.0456C209.771 59.0553 209.611 59.0525 209.41 59.0129C209.169 58.9642 208.921 58.9262 208.527 58.9422C206.103 59.0432 203.679 59.135 201.255 59.2345C200.855 59.2505 200.667 59.1832 200.386 59.1484C200.292 59.1378 200.185 59.1211 200.098 59.1243C199.103 59.1614 198.115 59.2015 197.12 59.2401C194.362 59.3494 191.604 59.454 188.853 59.5694C188.353 59.5903 188.011 59.5524 187.656 59.487C187.583 59.4733 187.456 59.4658 187.362 59.4691C183.503 59.6202 179.643 59.7728 175.79 59.9255C175.583 59.9335 175.382 59.9093 175.215 59.8696C175.041 59.8285 174.847 59.8088 174.633 59.8169C172.87 59.886 171.107 59.9551 169.345 60.0258C168.904 60.0435 168.897 60.045 168.442 59.972C168.348 59.9568 168.248 59.9278 168.174 59.931C168.021 59.939 167.874 59.9776 167.768 60.0301C167.662 60.0855 167.495 60.1012 167.248 60.1124C166.994 60.1236 166.827 60.1193 166.633 60.0827C166.385 60.0371 166.157 59.9929 165.757 60.009C160.689 60.2144 155.62 60.4122 150.552 60.6161C150.145 60.6322 149.957 60.568 149.676 60.5331C149.582 60.5225 149.489 60.5073 149.388 60.5044C149.281 60.5015 149.168 60.511 149.061 60.5158C140.794 60.842 132.528 61.1698 124.261 61.496C123.767 61.5153 123.774 61.5153 123.234 61.6576C123.168 61.6746 123.081 61.6978 122.987 61.701C120.457 61.8037 117.919 61.9034 115.382 62.003C114.28 62.0464 113.178 62.0914 112.077 62.1332C111.683 62.1477 111.683 62.1477 110.743 62.3153C110.663 62.3293 110.569 62.3479 110.476 62.3511C106.069 62.5262 101.661 62.7013 97.2475 62.8734C96.9003 62.8863 96.6201 62.9144 96.4607 62.9884C96.3477 63.0409 96.2011 63.0718 95.9808 63.0814C92.8958 63.2036 89.8109 63.3272 86.7192 63.4463C86.3519 63.4607 86.1319 63.5041 85.9523 63.569C85.8924 63.5906 85.8392 63.6153 85.7526 63.6308C85.6726 63.6447 85.5524 63.6496 85.4523 63.6543C82.808 63.7588 80.1638 63.8663 77.5128 63.9662C77.1188 63.9807 76.9591 64.0378 76.7661 64.0981C76.6995 64.1182 76.6531 64.1459 76.5664 64.1599C76.4797 64.1723 76.3528 64.1725 76.2459 64.1758C74.0423 64.2626 71.8388 64.3509 69.6353 64.4377C69.2076 64.4308 69.1151 64.52 68.9087 64.5742C68.8354 64.5927 68.7824 64.6174 68.6957 64.6298C68.6023 64.6423 68.4819 64.6409 68.3683 64.6442C66.6055 64.7133 64.8427 64.7871 63.0731 64.8516C62.6658 64.8661 62.5865 64.9446 62.3667 64.9988C62.2934 65.0158 62.2204 65.0421 62.1336 65.0468C61.0318 65.0933 59.9301 65.1367 58.8283 65.1785C58.461 65.193 58.461 65.1915 57.8148 65.3447C57.7415 65.3617 57.6548 65.3803 57.5613 65.3851C55.912 65.4525 54.256 65.5168 52.6 65.5827C52.3863 65.5907 52.2399 65.6278 52.1336 65.6803C52.0273 65.7327 51.8741 65.7667 51.6604 65.7748C50.3383 65.8278 49.0161 65.8823 47.6939 65.9307C47.3266 65.9436 47.0866 65.9825 46.9271 66.0519C46.8075 66.1043 46.6609 66.1307 46.4272 66.1403C45.105 66.1918 43.7829 66.2478 42.454 66.2932C42.0667 66.3061 41.8668 66.3587 41.7073 66.4235C41.581 66.476 41.4342 66.4947 41.1872 66.5043C38.7632 66.5976 36.3326 66.6909 33.9155 66.7935C33.5082 66.8111 33.3004 66.7577 33.0327 66.7197C32.6512 66.6666 32.2965 66.6088 32.2951 66.489C32.2949 66.4706 32.181 66.4493 32.1007 66.434C31.5047 66.3198 31.5047 66.3199 31.4096 66.1971C31.3553 66.1219 31.2942 66.0452 31.2465 65.9685C31.1581 65.8427 30.9439 65.8108 30.3296 65.8349C30.1092 65.8429 29.8889 65.8541 29.6685 65.8606C29.3413 65.8719 29.0935 65.8217 29.0323 65.7296C28.9982 65.6789 28.9576 65.6283 28.9236 65.5777C29.2575 65.5648 29.2507 65.5633 29.8363 65.3764C30.0825 65.2976 30.0826 65.2976 29.6074 65.2201C29.4266 65.1912 29.2525 65.1592 29.0584 65.1319C28.9714 65.1198 28.8578 65.1123 28.7643 65.1155C28.21 65.1349 27.6625 65.1574 27.115 65.1798C26.2336 65.2152 26.2335 65.2152 25.3363 65.06C25.2627 65.0478 25.1489 65.025 25.1621 65.0127C25.2349 64.9557 25.4149 64.9308 25.642 64.9243C25.9759 64.9145 26.303 64.8986 26.6302 64.8857C26.8506 64.8776 27.0709 64.868 27.2913 64.86C27.4977 64.8012 27.7109 64.744 27.9039 64.6838C28.2101 64.5911 28.2099 64.588 27.7883 64.5242C27.5205 64.4816 27.2328 64.4437 26.9584 64.4043C26.6312 64.4171 26.2974 64.4315 25.9702 64.4428C25.5561 64.4574 25.3887 64.4285 25.2806 64.3288C25.186 64.2414 25.2987 64.1659 25.6191 64.1469C25.9463 64.1279 26.2536 64.1151 26.4196 64.0365C26.579 63.9609 26.8592 63.9312 27.2065 63.9245C27.4269 63.9195 27.6473 63.9084 27.8676 63.8988C28.1547 63.886 28.3075 63.8074 28.2463 63.7199C28.2122 63.6631 28.1448 63.6156 27.8841 63.6038C26.7277 63.552 26.7143 63.5536 26.1385 63.4501C26.0849 63.441 26.0446 63.4134 26.0645 63.3995C26.0976 63.3764 26.1707 63.3425 26.2508 63.3377C27.0186 63.3026 27.7865 63.2706 28.5545 63.2462C28.8082 63.2381 28.9952 63.227 29.0813 63.17C29.2006 63.0914 29.1463 63.0193 28.9118 62.9659C28.8382 62.9492 28.7175 62.9279 28.6374 62.9295C27.7559 62.9587 26.8812 62.9956 25.9997 63.0248C25.9196 63.028 25.7724 63.0021 25.7387 62.9822C25.6715 62.9455 25.771 62.8961 26.0046 62.8788C26.3116 62.8552 26.6256 62.8531 26.8318 62.776C27.1177 62.6664 27.4705 62.5659 27.7899 62.4609C27.8431 62.4424 27.9297 62.4069 27.9096 62.4038C27.7422 62.3703 27.5481 62.3445 27.374 62.3126C27.0794 62.2593 27.0784 62.1841 27.1443 62.1117C27.1971 62.0533 27.3972 62.0299 27.6444 62.0294C27.7513 62.0293 27.8849 62.029 27.9716 62.015C28.1983 61.9809 28.2713 61.9377 28.1573 61.9056C28.0903 61.8873 27.9698 61.8614 27.8896 61.8646C26.4606 61.9178 25.0248 61.9695 23.6026 62.0349C23.1819 62.0541 22.9876 61.996 22.7333 61.955C22.5391 61.9231 22.3585 61.9111 22.1183 61.9346C21.8914 61.9565 21.6709 61.9446 21.53 61.8941C21.4159 61.8528 21.6158 61.8171 22.1565 61.7763C22.2566 61.7684 22.3701 61.7636 22.4434 61.7481C23.2163 61.5808 23.2162 61.5793 23.7504 61.5569C24.2713 61.536 24.2714 61.5345 24.5442 61.4449C24.6706 61.4032 24.8103 61.3614 24.93 61.3182C24.9766 61.3012 25.0565 61.2704 25.0296 61.2612C24.8821 61.2138 24.6815 61.2034 24.4478 61.2146C23.927 61.2416 23.3122 61.2212 23.0401 61.3676C22.9339 61.4231 22.767 61.4387 22.5266 61.4484C20.1094 61.5417 17.6921 61.6411 15.2681 61.7314C14.8741 61.7459 14.6945 61.803 14.5416 61.8663C14.4087 61.9188 14.2618 61.9344 14.0081 61.944C13.7543 61.9537 13.5539 61.9587 13.4063 61.9082C13.3191 61.8776 13.3921 61.8345 13.5919 61.7911C13.8785 61.7292 13.8241 61.6525 13.7296 61.5804C13.6623 61.5329 13.4548 61.4995 13.2343 61.5029C12.9071 61.5096 12.5934 61.5271 12.3187 61.4661C12.158 61.4311 11.9572 61.4068 11.7765 61.3764C11.4283 61.314 11.0801 61.2501 10.5929 61.2924C10.2587 61.2776 10.0242 61.2227 9.75648 61.1802C9.30802 61.1103 9.2678 61.0996 9.58755 61.0238C9.94728 60.9386 9.66529 60.8285 9.8647 60.7452C10.0774 60.6557 10.3705 60.5769 10.63 60.4935C10.6966 60.4718 10.7565 60.4518 10.823 60.4301C10.669 60.3997 10.5283 60.3615 10.3476 60.3403C10.1135 60.3131 9.99279 60.2795 10.005 60.1842C9.95806 60.1705 9.97839 60.2058 10.0319 60.2149C10.0922 60.224 10.2392 60.2161 10.3125 60.2052C10.4992 60.1757 10.5922 60.1371 10.545 60.1049C10.5181 60.0881 10.391 60.0668 10.3108 60.0669C10.1639 60.0672 10.0374 60.1012 9.9983 60.1842C9.25085 60.2485 8.47615 60.2806 7.7015 60.3065C7.62138 60.3097 7.52085 60.2792 7.42714 60.264C7.11919 60.2123 7.11917 60.2138 6.21711 60.2C6.12356 60.1986 5.99644 60.1774 5.94941 60.1559C5.75453 60.0625 5.76001 59.9596 5.66527 59.8599C5.83818 59.7951 6.01097 59.7318 6.19058 59.6685C6.54978 59.5403 7.01616 59.4274 7.29504 59.2871C7.234 59.2119 7.1529 59.1368 7.4461 59.0748C8.28023 58.9966 8.2736 58.9966 8.49985 58.9224C9.14532 58.7124 9.78405 58.5008 10.4563 58.2937C10.636 58.2397 10.6357 58.2105 10.3147 58.188C10.2144 58.182 10.1074 58.1807 10.0005 58.1839C9.66664 58.1953 9.33296 58.2235 9.00553 58.2179C8.67813 58.2139 8.43681 58.1467 8.16908 58.1057C7.89465 58.0631 7.62022 58.0191 7.34577 57.975C7.03184 57.9801 6.71844 58.0237 6.40361 57.9551C6.16246 57.9017 5.86138 57.8639 5.58694 57.8198C5.79261 57.7027 6.17906 57.6129 6.47843 57.5094C6.75119 57.4152 6.75774 57.4168 7.49173 57.3433C7.83871 57.3089 7.95685 57.1351 7.66229 57.0849C7.30747 57.024 6.93274 56.9679 6.57128 56.9101C6.25735 56.9153 5.93725 56.9573 5.63579 56.8887C5.40133 56.8369 5.13363 56.802 4.7464 56.8226C4.09211 56.8576 3.42428 56.8756 2.76324 56.9044C2.53622 56.914 2.28889 56.9083 2.18804 56.8563C2.12079 56.8195 2.31392 56.7685 2.53425 56.7573C2.86809 56.7414 3.16846 56.7224 3.33454 56.6453C3.49394 56.5682 3.78757 56.5447 4.13483 56.5333C4.22832 56.5301 4.33506 56.5115 4.3816 56.4929C4.62102 56.4034 4.88732 56.3262 5.40176 56.3283C5.61517 56.2972 5.7282 56.2586 5.66094 56.2219C5.62062 56.202 5.48008 56.1761 5.39995 56.1793C4.84565 56.1956 4.29137 56.212 3.75058 56.2406C3.49687 56.2533 3.30306 56.2567 3.14217 56.2109C3.02823 56.1804 3.08784 56.1388 3.30108 56.0938C3.48766 56.0551 3.54062 56.0105 3.52663 55.9583C3.49175 55.8369 3.29086 55.802 2.64962 55.8108C2.18874 55.8177 2.07492 55.7979 1.97344 55.6936C1.94642 55.6691 1.87932 55.6354 1.92587 55.6184C2.21187 55.5135 2.39736 55.3841 2.93789 55.334C3.15145 55.3152 3.37849 55.3148 3.51162 55.2746C3.64474 55.2344 3.76449 55.1881 3.90432 55.1495C4.07745 55.1031 4.19706 55.0599 4.11654 55.0308C3.98229 54.9788 3.76853 54.9746 3.52157 54.9935C3.30798 55.0092 3.08086 55.0111 2.86052 55.0207C2.46657 55.0383 2.14549 54.9989 2.0979 54.9314C1.9688 54.7534 1.833 54.577 1.71726 54.399C1.70364 54.3775 1.73661 54.3498 1.78983 54.3312C1.9761 54.2664 2.17585 54.2046 2.36882 54.1413C2.59508 54.0687 2.95606 54.0819 3.2632 54.0675C3.69719 54.0468 3.69706 54.0483 4.27647 53.8998C4.5029 53.841 4.89735 53.8634 5.13054 53.8108C5.20382 53.7937 5.31705 53.7659 5.29682 53.7505C5.26986 53.7306 5.13613 53.7155 5.03581 53.7064C4.94217 53.6974 4.82857 53.693 4.72842 53.6978C3.5131 53.7444 2.30453 53.7942 1.08919 53.8393C0.882185 53.8473 0.654628 53.8139 0.580562 53.7664C0.506533 53.722 0.525855 53.6682 0.511877 53.6175C0.704846 53.5542 0.92451 53.4954 1.0907 53.4275C1.217 53.3751 1.36371 53.3518 1.61754 53.3483C1.95151 53.3431 2.27867 53.3241 2.65261 53.3096C3.34466 53.0841 4.02317 52.8479 4.76866 52.6223C5.06818 52.5311 4.99369 52.439 5.05264 52.3421C5.11168 52.2529 5.55942 52.266 5.85973 52.2394C6.09997 52.2174 6.17943 52.1681 6.08549 52.1345C6.0318 52.1146 5.91134 52.0918 5.81781 52.0919C5.59735 52.0923 5.37707 52.1065 5.1567 52.1146C4.93634 52.1227 4.68243 52.1185 4.50237 52.1449C4.32898 52.1698 4.21598 52.2222 4.10295 52.267C3.97662 52.3164 3.80993 52.3336 3.55611 52.3371C3.22879 52.3407 2.90163 52.3551 2.57442 52.3664C2.21294 52.3071 1.83804 52.2494 1.48988 52.187C1.42293 52.1749 1.40906 52.1396 1.41546 52.1165C1.4281 52.0566 1.32746 52.0199 1.10665 51.991C0.919295 51.9668 0.765199 51.9317 0.59113 51.9013C0.724236 51.8596 0.870775 51.8194 0.977121 51.7746C1.2098 51.6805 1.50295 51.6124 2.01072 51.6146C2.2104 51.5544 2.36979 51.4803 2.62983 51.4384C2.87652 51.398 3.29791 51.4372 3.48386 51.3463C3.57684 51.3015 3.7166 51.2506 3.89675 51.2319C4.18366 51.2022 4.55795 51.2169 4.72392 51.1306C4.82353 51.0812 4.9699 51.0364 5.16348 51.0238C5.38377 51.0096 5.61082 51.0061 5.7708 50.9767C5.85746 50.9611 5.9507 50.9364 5.95044 50.9149C5.95027 50.9011 5.8165 50.8798 5.72286 50.8707C5.63588 50.8601 5.52209 50.8526 5.42192 50.8559C5.088 50.8657 4.76086 50.8832 4.42695 50.8929C4.33346 50.8962 4.22647 50.8856 4.12615 50.8766C3.83191 50.8525 3.85153 50.8217 4.08468 50.766C4.31785 50.7119 4.48411 50.6424 4.67708 50.5791C4.89073 50.568 5.15797 50.5721 5.30458 50.5427C5.55118 50.4946 5.72399 50.4252 5.92368 50.3649C6.14403 50.3553 6.37111 50.3519 6.57801 50.3346C6.66478 50.3283 6.70448 50.2944 6.77773 50.2743C6.91087 50.2357 7.02386 50.1802 7.20401 50.1614C7.49762 50.1333 7.85849 50.1434 8.03116 50.0586C8.13077 50.0093 8.28373 49.9568 8.47074 49.9534C8.99175 49.9463 9.21119 49.8614 9.47744 49.7811C9.67713 49.7208 10.1051 49.7508 10.3248 49.6905C10.4713 49.6518 10.5777 49.604 10.7242 49.5669C10.7841 49.5514 10.9109 49.5435 11.0111 49.5388C11.5586 49.5148 12.1129 49.4969 12.6604 49.4714C12.7472 49.4666 12.8271 49.4434 12.8937 49.4249C13.0335 49.3847 13.1196 49.3292 13.293 49.3028C13.4663 49.2764 13.7135 49.276 13.9272 49.2679C14.615 49.2437 14.6686 49.2497 14.981 49.1186C15.2335 49.0121 15.8558 49.0863 16.0615 48.9692C16.1809 48.9014 16.4006 48.8457 16.7947 48.8374C17.349 48.8257 17.8965 48.7955 18.4507 48.7746C18.9448 48.7553 18.9382 48.7553 19.4709 48.6115C19.7106 48.5465 20.0649 48.5551 20.3787 48.5423C20.7126 48.5294 21.0196 48.5105 21.179 48.4334C21.3384 48.3578 21.632 48.3327 21.9726 48.3214C22.2865 48.3101 22.6407 48.3172 22.8872 48.2553C23.4866 48.1067 23.4799 48.1052 23.9006 48.0891C24.5617 48.0634 25.2227 48.0377 25.8838 48.0104C26.3245 47.9927 26.7854 47.9889 27.1992 47.9543C27.4995 47.9292 27.632 47.843 27.8251 47.7827C28.3726 47.7587 28.9201 47.7347 29.4676 47.7123C30.2355 47.6802 31.0101 47.6512 31.7847 47.6207C32.118 47.5617 32.1633 47.4326 32.7244 47.4255C33.0584 47.4218 33.3855 47.4013 33.7194 47.3884C34.2736 47.3659 34.8211 47.3373 35.3754 47.3256C35.7962 47.3172 35.8685 47.2341 36.0884 47.1815C36.1616 47.1629 36.2282 47.1367 36.315 47.1319C37.1829 47.0874 38.0779 47.0766 38.9256 47.0122C39.0124 47.0059 39.0922 46.9735 39.1119 46.9504C39.1252 46.9381 39.0113 46.9153 38.9377 46.9046C38.8507 46.8925 38.737 46.8804 38.6435 46.8836C35.8857 46.9913 33.128 47.1006 30.3701 47.2083C29.9829 47.2244 29.9828 47.2228 29.0429 47.3935C28.9629 47.4074 28.8695 47.4229 28.7693 47.4277C28.3286 47.4469 27.8812 47.4585 27.4472 47.4823C27.0934 47.5013 26.7993 47.4834 26.5448 47.4285C26.3639 47.3889 26.1766 47.3769 25.9495 47.3804C25.6957 47.3854 25.529 47.4026 25.3825 47.4444C25.1895 47.5015 25.0902 47.5755 24.6828 47.5915C22.8064 47.6609 20.9299 47.7379 19.0602 47.8118C18.7994 47.7907 18.6721 47.7587 18.7385 47.7202C18.7783 47.697 18.8581 47.6662 18.9382 47.663C19.7061 47.6294 20.4807 47.6004 21.2486 47.5683C21.3554 47.5635 21.5024 47.5663 21.5623 47.5509C21.8554 47.4812 21.9611 47.3689 22.5155 47.3602C22.8361 47.3551 23.1631 47.3315 23.4701 47.3094C23.5569 47.3031 23.6367 47.2707 23.6565 47.2476C23.663 47.2353 23.5558 47.2125 23.4755 47.2019C23.181 47.1578 22.8411 47.2122 22.5467 47.182C22.4464 47.1714 22.3058 47.1563 22.2856 47.1379C22.272 47.121 22.3852 47.0931 22.4652 47.0761C22.5385 47.0606 22.6385 47.0466 22.7386 47.0418C23.62 47.005 24.5016 46.9666 25.3831 46.9374C25.7437 46.926 25.997 46.8871 26.1565 46.8162C26.2761 46.7637 26.4227 46.7358 26.6498 46.7278C28.1923 46.6682 29.7347 46.6026 31.284 46.5477C31.6713 46.5347 31.8712 46.4837 32.0307 46.4173C32.157 46.3649 32.3037 46.3462 32.5508 46.3365C34.7611 46.2528 36.9579 46.1599 39.1682 46.0792C39.5756 46.0647 39.6951 45.9984 39.9015 45.9412C39.9747 45.9211 40.0211 45.8964 40.1144 45.884C40.2078 45.8715 40.3281 45.8729 40.4416 45.8696C42.2045 45.8005 43.9674 45.7267 45.737 45.6622C46.151 45.6477 46.2301 45.5707 46.4433 45.5166C46.5165 45.4995 46.5831 45.4718 46.6699 45.467C47.992 45.4125 49.3141 45.361 50.6362 45.308C51.5176 45.2727 52.399 45.2374 53.2805 45.2036C53.7145 45.1875 53.7145 45.1859 54.3007 45.0389C54.3673 45.0219 54.4606 45.0018 54.5474 44.997C57.0848 44.8943 59.6155 44.7962 62.153 44.695C62.3667 44.687 62.5199 44.6513 62.6261 44.5989C62.7324 44.5465 62.8857 44.5109 63.0927 44.5029C65.0759 44.4226 67.0591 44.3439 69.049 44.2682C69.4096 44.2553 69.663 44.218 69.8225 44.1486C69.9421 44.0961 70.0887 44.0682 70.3157 44.0601C72.299 43.983 74.2823 43.9012 76.2722 43.827C76.6528 43.8125 76.8392 43.76 77.0255 43.6982C77.092 43.6766 77.1451 43.6412 77.2252 43.6379C78.2134 43.5932 79.1949 43.5469 80.1899 43.516C80.604 43.503 80.7435 43.4382 80.9098 43.3765C81.0428 43.3271 81.1963 43.31 81.4501 43.3034C82.0044 43.2886 82.5518 43.2615 83.0927 43.2345C83.1728 43.2297 83.2726 43.1957 83.279 43.1742C83.2919 43.1343 83.1378 43.1069 82.8838 43.0935C80.2395 43.1979 77.5886 43.3024 74.9443 43.4068C74.5103 43.4245 74.5103 43.4245 73.9242 43.5715C73.8576 43.5885 73.7642 43.6086 73.6707 43.6134C71.1333 43.7146 68.6026 43.8142 66.0651 43.9154C65.8515 43.9235 65.6983 43.9591 65.592 44.0115C65.4858 44.0639 65.3324 44.0995 65.1254 44.1076C62.7015 44.204 60.2776 44.3019 57.847 44.3937C57.4864 44.4066 57.233 44.4424 57.0735 44.5133C56.9539 44.5658 56.8073 44.5937 56.5802 44.6017C54.2631 44.6918 51.9527 44.7865 49.6288 44.8734C49.3951 44.8815 49.221 44.8373 49.2338 44.7958C49.2402 44.7743 49.3399 44.7388 49.42 44.7356C50.6286 44.6828 51.8306 44.6284 53.046 44.5879C53.4533 44.5749 53.5726 44.5071 53.7791 44.4499C53.8456 44.4298 53.8988 44.4036 53.9855 44.3927C54.0789 44.3802 54.1991 44.3816 54.3127 44.3783C57.1773 44.2643 60.042 44.1487 62.9134 44.0407C63.3274 44.0247 63.4065 43.9492 63.6197 43.8951C63.6929 43.8765 63.7594 43.8488 63.8463 43.8455C64.7276 43.8071 65.6091 43.7733 66.4905 43.7396C68.033 43.6785 69.5755 43.6174 71.1246 43.5564C71.572 43.5387 71.5721 43.5387 72.1448 43.3933C72.2114 43.3763 72.3048 43.3546 72.3916 43.3514C76.4715 43.1891 80.5515 43.0269 84.6315 42.8661C84.8451 42.8581 84.9983 42.8225 85.1046 42.7701C85.2109 42.7192 85.364 42.682 85.571 42.6725C91.0866 42.4539 96.5956 42.2354 102.111 42.02C102.472 42.0055 102.725 41.9728 102.885 41.9003C102.998 41.8479 103.151 41.82 103.378 41.8104C109.441 41.5709 115.504 41.3315 121.574 41.0905C125.654 40.9298 129.734 40.766 133.814 40.6084C134.188 40.5939 134.388 40.5459 134.574 40.4826C134.634 40.461 134.694 40.4255 134.774 40.4223C135.648 40.3824 136.523 40.3455 137.398 40.3087C137.672 40.3497 137.947 40.3892 138.221 40.4302C138.427 40.3714 138.627 40.3112 138.834 40.2524C140.156 40.2056 141.458 40.1342 142.793 40.1103C142.88 40.1087 142.974 40.1377 143.068 40.1529C143.69 40.2486 144.044 40.2403 144.437 40.1106C144.577 40.0642 144.696 40.0225 144.91 40.0145C145.571 39.9857 146.239 39.9661 146.893 39.9327C147.247 39.9152 147.541 39.93 147.796 39.9849C147.977 40.0245 148.164 40.0411 148.384 40.0315C149.6 39.9833 150.808 39.9367 152.023 39.8854C152.11 39.8822 152.19 39.8559 152.257 39.8373C152.396 39.7972 152.516 39.7539 152.649 39.7122C152.83 39.738 153.031 39.7577 153.178 39.7912C153.366 39.8308 153.539 39.8305 153.793 39.8193C158.641 39.625 163.495 39.4353 168.343 39.2394C168.757 39.2233 168.938 39.2876 169.219 39.3209C169.313 39.333 169.407 39.3482 169.507 39.3511C169.614 39.354 169.727 39.3446 169.834 39.3398C173.473 39.1952 177.113 39.0521 180.752 38.9075C181.233 38.8883 181.233 38.8883 181.949 38.9823C182.036 38.9944 182.149 39.008 182.243 39.0033C183.899 38.9405 185.555 38.8731 187.204 38.8088C187.418 38.8007 187.599 38.825 187.793 38.86C188.175 38.9284 188.201 38.9284 188.48 38.8265C188.613 38.7787 188.753 38.7492 188.974 38.735C189.214 38.7192 189.408 38.7235 189.595 38.7508C189.863 38.7888 190.058 38.853 190.465 38.8354C192.228 38.7601 193.997 38.6971 195.753 38.6203C196.154 38.6027 196.368 38.6546 196.636 38.6925C196.73 38.7062 196.817 38.7275 196.917 38.732C197.017 38.7364 197.138 38.7254 197.244 38.7206C199.448 38.6339 201.658 38.5486 203.855 38.4557C204.269 38.4381 204.45 38.5038 204.731 38.5371C204.825 38.5492 204.932 38.5706 205.019 38.5674C206.341 38.5174 207.67 38.4644 208.992 38.4114C209.466 38.3922 209.466 38.3937 210.189 38.4862C210.276 38.4983 210.389 38.5104 210.483 38.5072C212.025 38.4476 213.575 38.3866 215.117 38.3255C215.591 38.3062 215.591 38.3062 216.962 38.3838C217.062 38.3897 217.169 38.3988 217.269 38.3955C219.032 38.3264 220.802 38.2588 222.564 38.1851C222.918 38.1706 223.212 38.1824 223.467 38.2373C223.648 38.2769 223.835 38.2935 224.055 38.2839C226.039 38.2051 228.029 38.1295 230.005 38.0462C230.386 38.0301 230.633 38.0635 230.901 38.1076C230.988 38.1228 231.075 38.1442 231.175 38.1501C231.276 38.1561 231.389 38.1498 231.496 38.145C233.479 38.0662 235.469 37.9921 237.446 37.9073C237.846 37.8897 238.061 37.9415 238.328 37.9795C238.422 37.9931 238.523 38.0206 238.603 38.0189C239.377 37.9915 240.152 37.9671 240.92 37.9273C241.334 37.9051 241.515 37.9755 241.796 38.0088C241.89 38.0194 241.997 38.0422 242.084 38.039C243.74 37.9762 245.396 37.9104 247.045 37.843C247.279 37.8333 247.453 37.8469 247.64 37.8865C247.888 37.9398 248.176 37.9608 248.536 37.9433C249.304 37.9066 250.079 37.8807 250.853 37.8502C251.307 37.8325 251.307 37.8325 252.698 37.91C252.798 37.9159 252.905 37.925 253.005 37.9217C254.327 37.8703 255.656 37.8203 256.972 37.7643C257.325 37.7483 257.62 37.7616 257.874 37.8165C258.055 37.8561 258.235 37.8727 258.463 37.8631C259.678 37.8149 260.887 37.7667 262.102 37.7185C262.543 37.7008 262.983 37.6709 263.424 37.6701C263.745 37.6711 263.979 37.7444 264.267 37.7808C264.347 37.7914 264.481 37.7789 264.588 37.7756C266.13 37.7146 267.679 37.6581 269.215 37.5894C269.616 37.5718 269.83 37.6236 270.098 37.6616C270.192 37.6752 270.292 37.7027 270.372 37.701C270.927 37.6832 271.474 37.6592 272.028 37.6383C272.689 37.6125 273.357 37.5929 274.012 37.558C274.546 37.5294 274.748 37.6627 275.175 37.6666C275.503 37.6706 275.836 37.6439 276.164 37.6311C276.825 37.6053 277.486 37.5765 278.147 37.5539C278.38 37.5458 278.561 37.5209 278.634 37.4655C278.647 37.4547 278.533 37.4318 278.459 37.4181C277.569 37.263 277.569 37.263 276.674 37.2983C276.12 37.3208 275.572 37.3433 275.018 37.3627C274.924 37.3659 274.817 37.3538 274.724 37.3447C274.456 37.3191 274.483 37.2883 274.709 37.2326C274.936 37.1769 275.108 37.109 275.301 37.0457C275.576 37.0852 275.844 37.1246 276.118 37.1641C276.338 37.156 276.559 37.1464 276.779 37.1384C277.881 37.0965 278.983 37.0531 280.084 37.0143C280.165 37.0111 280.265 37.0417 280.359 37.0569C280.627 37.101 280.868 37.139 281.255 37.1214C282.243 37.0751 283.238 37.0411 284.226 37.001C284.66 36.9833 284.66 36.9833 285.423 37.0773C285.51 37.0879 285.624 37.1 285.717 37.0967C286.712 37.0597 287.7 37.0196 288.695 36.981C288.909 36.9729 289.116 36.9925 289.271 37.0368C289.331 37.0551 289.318 37.0859 289.575 37.3374C290.366 37.5403 290.907 37.5179 291.454 37.4985C291.688 37.4904 291.895 37.4824 292.048 37.4514C292.128 37.4344 292.228 37.4096 292.228 37.3896C292.228 37.3743 292.08 37.3499 291.987 37.347C291.325 37.3174 290.698 37.3831 290.05 37.398C289.749 37.4047 289.488 37.3514 289.434 37.2639C289.42 37.2393 289.4 37.2132 289.379 37.1887C289.359 37.1642 289.345 37.1381 289.325 37.1135C289.064 37.1063 288.911 37.1342 288.798 37.1866C288.705 37.2298 288.572 37.2792 288.392 37.3026C288.212 37.3275 287.965 37.3233 287.744 37.3314C287.531 37.3394 287.297 37.3598 287.097 37.3494C286.896 37.3374 286.735 37.2932 286.548 37.2658C286.461 37.2521 286.354 37.2324 286.267 37.2356C285.499 37.263 284.738 37.2905 283.976 37.3256C283.576 37.3447 283.375 37.2806 283.12 37.2411C282.919 37.2107 282.719 37.2187 282.686 37.2894C282.602 37.4586 282.91 37.5287 283.591 37.4953C284.152 37.4666 284.659 37.4612 285.102 37.5649C285.162 37.5786 285.302 37.5845 285.389 37.5813C285.937 37.5619 286.477 37.5379 287.025 37.5185C287.125 37.5152 287.232 37.5212 287.326 37.5272C288.69 37.6078 288.69 37.6093 289.15 37.5901C289.371 37.5805 289.584 37.5724 289.562 37.3389C289.979 37.0878 290.647 37.0697 291.295 37.0317C291.715 37.008 291.897 37.0753 292.171 37.1101C292.265 37.1222 292.365 37.1466 292.452 37.1434C293.888 37.0902 295.317 37.034 296.746 36.9746C296.986 36.965 297.16 36.9739 297.347 37.0135C297.588 37.0638 297.856 37.0956 298.237 37.0765C298.998 37.0383 299.772 37.014 300.547 36.9819C300.941 36.9658 300.941 36.9658 301.737 37.0597C301.824 37.0703 301.938 37.0824 302.031 37.0791C302.806 37.0517 303.574 37.0181 304.342 36.9891C304.555 36.9811 304.749 37.0022 304.917 37.0434C305.084 37.0846 305.285 37.1058 305.492 37.0977C306.267 37.0687 307.035 37.0367 307.803 37.0077C307.896 37.0045 308.01 37.015 308.097 37.0256C308.913 37.1194 308.913 37.1194 309.287 37.1034C309.834 37.0794 310.395 37.0677 310.936 37.036C311.463 37.0044 311.738 37.093 312.1 37.1416C313.088 37.1045 314.083 37.0736 315.065 37.0289C315.465 37.0097 315.68 37.0601 315.947 37.0995C316.041 37.1132 316.135 37.1422 316.222 37.1405C316.556 37.1338 316.883 37.1164 317.21 37.1035C317.537 37.0906 317.871 37.0778 318.198 37.0649C318.573 37.1088 318.822 37.2129 319.356 37.1766C319.676 37.1545 320.017 37.1493 320.344 37.1365C320.671 37.1236 321.005 37.1107 321.332 37.0979C321.552 37.0898 321.78 37.0848 321.993 37.0706C322.387 37.0469 322.582 37.1218 322.863 37.1551C322.956 37.1657 323.063 37.184 323.15 37.1807C323.811 37.1581 324.479 37.1385 325.127 37.102C325.627 37.0735 325.969 37.119 326.324 37.1829C326.397 37.1966 326.524 37.2041 326.618 37.2008C327.392 37.1734 328.16 37.1398 328.928 37.1108C329.135 37.1028 329.336 37.127 329.503 37.1666C329.678 37.2078 329.872 37.2275 330.085 37.2194C330.853 37.1904 331.628 37.1583 332.396 37.1294C332.489 37.1261 332.603 37.1382 332.69 37.1504C333.439 37.2443 333.439 37.2458 333.88 37.2266C333.987 37.2219 334.1 37.2186 334.207 37.2138C334.755 37.1913 335.323 37.1827 335.857 37.1449C336.471 37.1023 336.919 37.1538 337.354 37.2406C337.902 37.2212 338.463 37.2095 338.997 37.1778C339.397 37.1541 339.612 37.2121 339.88 37.25C339.973 37.2637 340.074 37.2912 340.154 37.288C340.929 37.2605 341.703 37.2361 342.464 37.1964C342.878 37.1741 343.059 37.243 343.34 37.2778C343.434 37.2899 343.535 37.3113 343.621 37.3081C344.062 37.295 344.503 37.2758 344.944 37.2581C345.458 37.2373 345.458 37.2388 346.14 37.3313C346.462 37.3753 346.782 37.3394 347.096 37.3281C347.43 37.3153 347.743 37.3055 348.011 37.368C348.179 37.4077 348.38 37.4319 348.587 37.4254C349.027 37.4108 349.475 37.3962 349.909 37.3724C350.256 37.3534 350.557 37.3651 350.811 37.4215C350.992 37.4612 351.179 37.4808 351.4 37.4712C352.388 37.4326 353.383 37.3925 354.371 37.3554C354.458 37.3522 354.578 37.3658 354.659 37.3795C354.846 37.4069 355.027 37.4373 355.208 37.4677C355.642 37.4531 356.089 37.4462 356.517 37.4239C356.971 37.4016 357.385 37.3932 357.74 37.4771C357.814 37.4954 357.921 37.5213 358.008 37.5197C358.341 37.5129 358.669 37.497 358.996 37.4841C359.323 37.4713 359.657 37.4584 359.984 37.4456C360.365 37.4833 360.607 37.5935 361.141 37.5572C361.462 37.5352 361.802 37.53 362.13 37.5171C362.457 37.5042 362.791 37.4898 363.118 37.4785C363.225 37.4753 363.345 37.4674 363.438 37.4734C363.539 37.4793 363.626 37.5007 363.713 37.5159C363.981 37.56 364.228 37.6041 364.609 37.5773C364.929 37.5553 365.27 37.5501 365.597 37.5357C366.044 37.518 366.044 37.518 366.787 37.6135C367.088 37.6529 367.428 37.6001 367.716 37.6334C367.91 37.6561 368.078 37.6942 368.265 37.72C368.345 37.7306 368.472 37.735 368.566 37.7318C369.006 37.7172 369.454 37.7026 369.888 37.6788C370.242 37.6597 370.536 37.6776 370.784 37.7325C370.965 37.7722 371.145 37.7888 371.372 37.7791C372.474 37.7342 373.576 37.6954 374.671 37.6459C375.045 37.6283 375.346 37.6539 375.553 37.7089C375.909 37.8035 376.408 37.6905 376.777 37.7667C377.004 37.8139 377.232 37.8688 377.646 37.8451C378.407 37.8038 379.182 37.7809 379.95 37.7519C380.224 37.7929 380.499 37.834 380.78 37.875C381.22 37.8573 381.661 37.8396 382.102 37.8235C382.429 37.8106 382.763 37.7962 383.09 37.7849C383.197 37.7816 383.31 37.7753 383.411 37.7828C383.511 37.7903 383.592 37.8101 383.685 37.8253C384.147 37.8998 384.147 37.9014 384.908 37.8693C385.236 37.8549 385.549 37.8452 385.824 37.9061C386.079 37.9625 386.379 37.9728 386.727 37.9553C387.381 37.9234 388.042 37.8992 388.71 37.8765C388.917 37.8685 389.111 37.8943 389.285 37.9339C389.546 37.9965 389.867 37.9898 390.194 37.9723C390.628 37.95 391.055 37.9278 391.424 38.0132C391.497 38.0315 391.611 38.0574 391.692 38.0557C392.239 38.0425 392.794 38.0323 393.328 38.0022C393.862 37.9721 394.123 38.0669 394.491 38.1123C395.039 38.0914 395.593 38.0704 396.141 38.0495C396.248 38.0447 396.374 38.0307 396.468 38.0382C396.863 38.0698 397.091 38.1846 397.632 38.1483C397.946 38.1278 398.286 38.1211 398.613 38.1159C398.7 38.1142 398.814 38.1401 398.875 38.16C398.908 38.1707 398.875 38.1999 398.835 38.2154C398.715 38.2586 398.569 38.2988 398.463 38.3435C398.449 38.3497 398.577 38.3771 398.65 38.3893C398.831 38.4166 399.038 38.4117 399.278 38.399C399.485 38.3879 399.699 38.409 399.847 38.4548C399.907 38.4732 399.888 38.5039 399.762 38.6055C399.763 38.6808 399.903 38.6468 399.949 38.5975C400.021 38.5267 399.881 38.5039 399.614 38.5428C399.427 38.5708 399.334 38.6109 399.382 38.6431C399.408 38.6599 399.536 38.6812 399.762 38.6055C400.349 38.5123 400.789 38.4947 401.23 38.477C401.344 38.4722 401.477 38.4566 401.557 38.4657C401.845 38.5021 402.113 38.5462 402.394 38.5871C402.714 38.5774 403.015 38.5538 403.329 38.6132C403.771 38.6969 403.791 38.6892 404.219 38.6715C404.439 38.6619 404.659 38.6539 404.88 38.6458C405.1 38.6378 405.274 38.6605 405.468 38.6955C405.863 38.767 405.897 38.7669 406.156 38.6682C406.309 38.608 406.416 38.5878 406.61 38.6152C407.252 38.7078 407.259 38.7139 407.806 38.6853C408.26 38.6614 408.688 38.6546 409.023 38.7415C409.251 38.8026 409.324 38.7887 409.504 38.7238C409.983 38.5525 410.203 38.5551 411.106 38.6765C411.528 38.7341 411.962 38.6704 412.389 38.662C412.75 38.6552 413.004 38.6916 413.032 38.7884C413.053 38.8482 413.113 38.8912 413.354 38.9107C413.448 38.9182 413.561 38.9288 413.655 38.9255C414.209 38.9061 414.757 38.8837 415.311 38.8612C415.591 38.85 415.744 38.7775 415.69 38.6824C415.628 38.5811 415.735 38.544 416.135 38.5141C416.375 38.4968 416.569 38.4995 416.763 38.5269C416.978 38.5572 416.918 38.585 416.731 38.6406C416.285 38.7766 416.34 38.8594 416.915 38.9521C417.116 38.9841 417.277 39.013 417.324 39.0605C417.351 39.0851 417.325 39.1174 417.385 39.1357C417.714 39.2381 418.169 39.3033 418.677 39.3516C419.164 39.3093 419.499 39.3778 419.874 39.4325C420.169 39.475 420.516 39.4375 420.829 39.4216C421.183 39.4041 421.477 39.4159 421.732 39.4723C421.913 39.5119 422.1 39.53 422.32 39.522C422.761 39.5043 423.209 39.4928 423.642 39.4674C424.016 39.4453 424.297 39.4755 424.532 39.5273C424.826 39.5929 425.153 39.5478 425.461 39.5564C425.875 39.5665 426.084 39.7028 426.625 39.665C426.945 39.643 427.279 39.6347 427.613 39.628C427.7 39.6263 427.807 39.6522 427.881 39.6705C428.236 39.7544 428.65 39.7491 429.104 39.7237C429.418 39.7063 429.725 39.6904 430.033 39.7482C430.542 39.8457 431.104 39.9307 431.639 40.0205C431.714 40.091 431.661 40.174 432.043 40.2149C432.243 40.236 432.431 40.268 432.585 40.303C432.772 40.3442 432.946 40.3546 433.186 40.3435C433.62 40.3212 434.075 40.3158 434.502 40.2874C434.896 40.2621 435.144 40.3124 435.385 40.3596C435.579 40.3977 435.76 40.4158 435.993 40.3878C436.233 40.3612 436.407 40.3778 436.601 40.419C436.876 40.4753 436.896 40.4691 437.805 40.4845C437.898 40.4858 438.012 40.5087 438.066 40.5286C438.093 40.5393 438.033 40.5701 437.986 40.5856C437.926 40.6041 437.833 40.6258 437.746 40.6305C436.758 40.6722 435.763 40.7092 434.775 40.7509C434.675 40.7557 434.568 40.7666 434.495 40.7821C434.415 40.7992 434.315 40.8224 434.315 40.8439C434.315 40.8592 434.449 40.8774 434.543 40.888C434.837 40.9229 435.184 40.8685 435.472 40.9079C435.666 40.9337 435.826 40.9703 436.02 40.9945C436.101 41.0052 436.228 41.0034 436.328 41.0002C436.662 40.9888 436.989 40.9729 437.323 40.9631C437.416 40.9614 437.523 40.9766 437.61 40.9887C438.253 41.0798 438.253 41.0798 438.807 41.0589C439.027 41.0508 439.261 41.0273 439.468 41.0362C439.669 41.0451 439.843 41.0862 440.024 41.112C440.398 41.1667 440.753 41.2199 440.781 41.3396C440.795 41.3857 441.016 41.4253 441.237 41.428C441.45 41.4307 441.677 41.4134 441.898 41.4038C442.419 41.3844 442.419 41.3844 443.094 41.477C443.282 41.5028 443.482 41.5055 443.723 41.4897C443.816 41.4834 443.93 41.4894 444.03 41.4969C444.358 41.5193 444.358 41.5485 444.145 41.6042C443.845 41.6861 443.872 41.6938 444.715 41.7615C445.036 41.787 445.283 41.8357 445.551 41.8783C445.986 41.9467 445.98 41.9467 445.693 42.0378C445.627 42.0579 445.567 42.0795 445.5 42.1012C445.307 42.1614 445.155 42.2262 444.754 42.233C444.313 42.2399 443.872 42.2653 443.432 42.283C443.004 42.3006 442.891 42.3377 442.933 42.4421C442.981 42.568 443.068 42.5816 443.836 42.5788C444.057 42.5784 444.25 42.5903 444.418 42.6315C444.338 42.6808 444.192 42.7195 443.978 42.7291C443.431 42.7531 442.876 42.774 442.329 42.7949C441.888 42.8126 441.447 42.8303 441.007 42.8479C440.733 42.8591 440.56 42.9393 440.635 43.0283C440.676 43.079 440.709 43.1296 440.744 43.1802C440.818 43.2815 440.959 43.3074 441.406 43.302C441.52 43.3003 441.627 43.2878 441.734 43.2907C442.168 43.3007 442.377 43.4278 442.897 43.4008C443.331 43.3785 443.786 43.3731 444.213 43.3447C444.607 43.3195 444.828 43.3744 445.102 43.4154C445.196 43.4291 445.297 43.4581 445.377 43.4564C445.931 43.4385 446.485 43.4207 447.026 43.3906C447.28 43.3778 447.433 43.3868 447.634 43.4233C448.116 43.5116 448.13 43.5069 448.844 43.478C449.365 43.4556 449.372 43.4587 450.041 43.5512C450.228 43.577 450.429 43.5767 450.669 43.564C450.983 43.5481 451.31 43.5229 451.638 43.5454C451.738 43.5514 451.865 43.5696 451.899 43.5895C451.919 43.6033 451.826 43.6373 451.746 43.6481C451.159 43.7291 450.471 43.7164 449.83 43.7498C449.629 43.7594 449.428 43.7305 449.261 43.6893C449.087 43.6482 448.9 43.6316 448.672 43.6397C448.232 43.6573 447.784 43.6689 447.35 43.6942C446.977 43.7163 446.716 43.6815 446.454 43.6343C446.367 43.6191 446.267 43.5901 446.18 43.5917C445.192 43.6242 444.197 43.6566 443.215 43.7014C442.821 43.7205 442.593 43.6717 442.326 43.6307C442.232 43.617 442.138 43.588 442.051 43.5897C441.717 43.5964 441.39 43.6139 441.056 43.6268C439.841 43.675 438.632 43.7232 437.417 43.7683C437.337 43.7715 437.236 43.7394 437.143 43.7257C436.962 43.6984 436.774 43.6726 436.587 43.6468C436.253 43.6597 435.926 43.6756 435.592 43.6854C435.352 43.692 435.138 43.7139 435.106 43.7723C435.086 43.8107 435.307 43.8457 435.541 43.8422C435.768 43.8387 435.995 43.8199 436.182 43.8396C437.112 43.9363 437.112 43.9378 437.693 43.9168C438.2 43.8975 438.147 43.8822 438.595 43.9659C438.789 44.0025 438.963 44.0237 439.184 44.0141C439.731 43.9916 440.286 43.9692 440.84 43.9498C440.927 43.9465 441.04 43.9617 441.127 43.9739C441.783 44.0649 441.783 44.068 442.324 44.044C443.032 44.0151 443.059 44.0074 443.534 44.1003C443.862 44.1642 444.162 44.1191 444.476 44.1155C444.838 44.1748 445.232 44.2279 445.561 44.2949C445.949 44.3741 446.356 44.3596 446.797 44.3358C447.124 44.3183 447.445 44.3116 447.713 44.3741C447.967 44.4321 448.275 44.4377 448.622 44.4217C448.936 44.4074 449.256 44.3776 449.584 44.4108C449.671 44.4199 449.805 44.4427 449.798 44.4566C449.792 44.4781 449.705 44.509 449.618 44.5183C449.005 44.5824 448.33 44.582 447.682 44.6123C447.595 44.6171 447.482 44.6004 447.395 44.5882C447.207 44.5609 447.026 44.529 446.846 44.5001C446.519 44.5099 446.185 44.5135 445.864 44.5325C445.617 44.5468 445.43 44.5456 445.249 44.509C445.082 44.4755 444.901 44.4343 444.7 44.4239C444.5 44.4135 444.266 44.437 444.046 44.4466C443.826 44.4562 443.572 44.452 443.398 44.4769C443.225 44.5018 443.119 44.5557 443.006 44.5989C442.879 44.6468 442.706 44.6625 442.452 44.6675C442.218 44.6725 442.031 44.6667 441.857 44.624C441.783 44.6057 441.683 44.592 441.582 44.5799C441.489 44.5693 441.382 44.5526 441.295 44.5558C440.3 44.5929 439.312 44.633 438.317 44.6716C437.822 44.6909 437.829 44.6909 436.799 44.602C436.706 44.5945 436.592 44.584 436.498 44.5872C435.944 44.6066 435.397 44.6291 434.842 44.6515C434.281 44.674 434.288 44.6709 433.332 44.5758C433.158 44.5577 432.904 44.5827 432.697 44.58C432.263 44.573 432.047 44.4444 431.54 44.4698C431.106 44.4921 430.652 44.4975 430.218 44.5259C429.824 44.5512 429.596 44.4978 429.328 44.4568C429.235 44.4431 429.134 44.4126 429.054 44.4158C428.059 44.4513 427.071 44.4914 425.748 44.4983C425.421 44.4989 425.568 44.5309 425.782 44.5413C426.089 44.5577 426.189 44.5252 426.022 44.4641C425.901 44.4213 425.727 44.4 425.587 44.411C425.513 44.4173 425.42 44.4467 425.748 44.4983C426.096 44.5561 426.077 44.5884 426.137 44.6067C426.284 44.651 426.492 44.6691 426.705 44.6626C427.039 44.6513 427.367 44.6353 427.7 44.6255C427.794 44.6223 427.908 44.6328 427.995 44.645C428.731 44.739 428.737 44.7451 429.519 44.7069C429.766 44.6957 429.946 44.6954 430.14 44.7242C430.408 44.7637 430.602 44.831 431.01 44.8087C431.55 44.7786 432.105 44.7608 432.659 44.7429C432.746 44.7397 432.84 44.7672 432.94 44.7793C433.214 44.8157 433.416 44.8845 433.823 44.8546C434.136 44.831 434.477 44.8242 434.811 44.819C434.898 44.8174 435.032 44.8417 435.072 44.8616C435.153 44.8968 435.053 44.9385 434.826 44.9681C434.733 44.9805 434.606 44.9776 434.499 44.9824C434.058 45.0001 433.618 45.0193 433.177 45.0339C432.943 45.042 432.723 45.0654 432.697 45.1223C432.677 45.1607 432.918 45.1941 433.145 45.1907C433.479 45.1855 433.813 45.1726 434.134 45.1521C434.701 45.1173 435.196 45.1256 435.658 45.2216C435.986 45.2887 435.966 45.2641 436.315 45.4632C436.403 45.5138 436.663 45.5179 436.891 45.5145C437.438 45.5058 437.692 45.5284 437.646 45.5761C437.587 45.6346 437.393 45.6534 437.146 45.6615C436.705 45.6746 436.265 45.6953 435.824 45.713C435.717 45.7178 435.597 45.7272 435.497 45.7243C435.397 45.7214 435.303 45.7031 435.216 45.6894C435.028 45.6606 434.867 45.6163 434.667 45.6059C434.466 45.5955 434.233 45.6189 434.013 45.6285C433.792 45.6366 433.559 45.6601 433.358 45.6496C433.158 45.6392 432.99 45.5935 432.809 45.5661C432.722 45.5524 432.615 45.5311 432.528 45.5328C432.087 45.5458 431.647 45.5666 431.206 45.5827C430.665 45.6036 430.665 45.6036 430.009 45.5095C429.822 45.4822 429.628 45.4841 429.381 45.4968C428.847 45.5223 428.84 45.5177 427.864 45.4303C427.77 45.4212 427.656 45.4107 427.563 45.4154C426.568 45.4525 425.58 45.4926 424.591 45.5312C423.743 45.5649 423.743 45.565 423.278 45.7194C422.932 45.8337 422.925 45.8337 423.266 45.8853C423.541 45.9279 423.789 45.9904 424.09 46.013C424.37 46.034 424.717 45.9642 425.025 46.0344C425.179 46.0694 425.38 46.1075 425.574 46.1133C425.881 46.1205 426.208 46.0753 426.503 46.1424C426.65 46.176 426.871 46.2109 427.058 46.2121C427.386 46.2146 427.719 46.1895 428.047 46.1782C428.147 46.1749 428.26 46.1747 428.354 46.1822C428.454 46.1913 428.541 46.2096 428.628 46.2248C428.896 46.2765 429.184 46.3006 429.531 46.2739C430.098 46.2299 430.606 46.2505 431.048 46.3481C431.109 46.3618 431.256 46.3631 431.349 46.3568C431.589 46.341 431.796 46.3391 431.977 46.368C432.051 46.3801 432.158 46.4015 432.145 46.4153C432.125 46.4384 432.045 46.4693 431.958 46.4771C431.331 46.5304 430.657 46.5377 430.009 46.5665C429.922 46.5697 429.815 46.5499 429.728 46.5363C429.541 46.5089 429.38 46.4631 429.179 46.4527C428.978 46.4423 428.745 46.4627 428.525 46.4708C428.304 46.4788 428.071 46.5023 427.87 46.4934C427.67 46.483 427.482 46.4449 427.321 46.4114C427.134 46.3733 426.953 46.369 426.706 46.3848C426.386 46.4054 426.052 46.409 425.725 46.4203C425.544 46.3914 425.363 46.3595 425.176 46.3322C425.089 46.3185 424.982 46.3018 424.888 46.3035C424.447 46.3165 424.007 46.3357 423.566 46.3534C423.125 46.3711 423.125 46.3711 422.376 46.2771C422.289 46.2665 422.175 46.2544 422.082 46.2577C421.527 46.2771 420.98 46.301 420.426 46.3204C420.212 46.3285 420.018 46.3073 419.844 46.2661C419.676 46.2249 419.476 46.2023 419.269 46.2103C418.387 46.2441 417.506 46.2764 416.624 46.3163C416.27 46.3323 415.97 46.319 415.728 46.2641C415.447 46.2016 415.133 46.2175 414.806 46.2303C414.065 46.2624 414.058 46.2608 413.583 46.1833C413.489 46.1681 413.395 46.1391 413.309 46.1408C412.541 46.1651 411.766 46.188 411.005 46.2262C410.604 46.2469 410.39 46.1935 410.122 46.154C410.028 46.1403 409.928 46.1113 409.848 46.1145C409.293 46.1324 408.739 46.1487 408.198 46.1804C407.657 46.212 407.449 46.0695 407.041 46.0718C406.487 46.0743 405.939 46.1106 405.392 46.133C404.951 46.1507 404.51 46.1683 404.07 46.186C403.629 46.2037 403.188 46.2182 402.748 46.239C402.514 46.2501 402.34 46.2366 402.146 46.1985C401.898 46.1483 401.604 46.1089 401.336 46.0632C400.928 45.9979 400.927 45.9979 400.433 46.0172C400.327 46.022 400.213 46.0252 400.106 46.03C399.298 46.0652 399.298 46.0622 398.268 45.9672C398.221 45.9626 398.101 45.9797 398.055 45.9921C397.915 46.0323 397.789 46.0755 397.662 46.1172C397.481 46.093 397.261 46.0795 397.14 46.0444C396.798 45.9451 396.265 46.0828 395.917 45.9851C395.789 45.9484 395.568 45.9165 395.368 45.9077C395.161 45.8988 394.927 45.9207 394.714 45.9303C394.159 45.9543 394.159 45.9528 393.687 46.0903C393.447 46.1584 393.1 46.1467 392.786 46.1626C392.459 46.18 392.145 46.1898 391.87 46.1273C391.622 46.0709 391.321 46.0576 390.968 46.0766C390.534 46.1004 390.086 46.115 389.645 46.1296C389.552 46.1329 389.438 46.1254 389.344 46.1163C388.321 46.0275 388.321 46.0259 387.827 46.0468C387.607 46.0564 387.38 46.0598 387.166 46.074C386.806 46.0992 386.531 46.0674 386.27 46.0187C386.183 46.0035 386.083 45.9745 385.996 45.9762C385.555 45.9846 385.121 45.9992 384.687 46.0138C384.353 46.0251 384.019 46.0319 383.699 46.0539C383.165 46.0902 382.903 45.9908 382.535 45.9453C381.987 45.9662 381.433 45.981 380.885 46.0096C380.632 46.0224 380.465 46.0181 380.271 45.9815C380.023 45.9359 379.795 45.884 379.394 45.9078C378.86 45.9394 378.299 45.9511 377.752 45.9705C377.384 45.9235 377.115 45.8272 376.588 45.8635C376.268 45.8855 375.927 45.8907 375.6 45.9036C375.159 45.9213 374.718 45.9374 374.278 45.9566C373.804 45.9759 373.81 45.9712 373.081 45.8819C372.659 45.8288 372.226 45.8895 371.798 45.8994C371.464 45.9077 371.298 45.9787 371.38 46.0692C371.461 46.1597 371.281 46.2307 370.974 46.2435C370.206 46.274 369.432 46.3061 368.664 46.3335C368.57 46.3367 368.457 46.3262 368.37 46.3156C367.547 46.2202 367.547 46.2218 367.179 46.2362C366.632 46.2602 366.071 46.2735 365.53 46.3036C365.156 46.3242 364.882 46.2925 364.641 46.2407C364.453 46.201 364.279 46.1921 364.039 46.2018C361.395 46.3093 358.75 46.4091 356.113 46.5197C355.719 46.5358 355.491 46.4916 355.224 46.4506C355.13 46.4369 355.043 46.4079 354.949 46.408C354.729 46.4084 354.508 46.4226 354.288 46.4322C353.3 46.4708 352.312 46.5171 351.317 46.5465C350.896 46.5595 350.783 46.6304 350.603 46.6891C350.464 46.7339 350.304 46.7526 350.057 46.7591C349.816 46.7657 349.642 46.7583 349.455 46.7187C349.214 46.6669 348.939 46.6351 348.566 46.6572C348.132 46.6826 347.691 46.6941 347.243 46.7118C347.016 46.7199 346.843 46.7478 346.77 46.8033C346.757 46.8125 346.897 46.8353 346.978 46.849C347.246 46.8946 347.5 46.9479 347.801 46.9797C348.109 47.0114 348.442 46.9739 348.763 46.9642C348.876 46.9609 348.983 46.9515 349.09 46.9529C349.19 46.9542 349.311 46.9617 349.384 46.9754C349.733 47.0439 350.1 47.0909 350.581 47.0486C350.995 47.0678 351.211 47.195 351.738 47.1603C352.059 47.1397 352.393 47.1299 352.727 47.1217C352.813 47.12 352.907 47.1475 353.001 47.1612C353.269 47.1991 353.483 47.2602 353.884 47.2334C354.311 47.205 354.765 47.1996 355.199 47.1773C355.439 47.1646 355.613 47.1751 355.801 47.2147C356.042 47.265 356.316 47.3029 356.69 47.2776C357.01 47.2556 357.351 47.2504 357.678 47.236C358.106 47.2183 358.106 47.2199 358.868 47.3138C358.955 47.3244 359.069 47.3365 359.163 47.3333C359.717 47.3139 360.264 47.2899 360.819 47.2705C361.032 47.2624 361.24 47.282 361.387 47.3263C361.448 47.3447 361.428 47.3754 361.448 47.4015C360.346 47.4449 359.245 47.4822 358.15 47.5348C357.736 47.5554 357.548 47.4928 357.273 47.4579C357.18 47.4458 357.079 47.4199 356.992 47.4231C356.218 47.4505 355.45 47.4795 354.682 47.5147C354.442 47.5258 354.261 47.52 354.08 47.4758C353.618 47.3583 353.058 47.4238 352.537 47.4416C352.136 47.4546 352.01 47.5024 352.058 47.6037C352.119 47.7234 352.36 47.7599 352.974 47.7373C353.195 47.7293 353.415 47.7181 353.636 47.7116C353.849 47.7051 354.043 47.7247 354.217 47.7659C354.385 47.8071 354.586 47.8282 354.793 47.8217C355.233 47.8071 355.681 47.7925 356.108 47.7688C356.462 47.7497 356.756 47.7646 357.004 47.821C357.279 47.8835 357.599 47.8691 357.92 47.8547C358.668 47.8227 358.674 47.8242 359.143 47.9002C359.236 47.9154 359.33 47.9445 359.417 47.9428C360.185 47.9184 360.96 47.8971 361.714 47.8589C362.108 47.8398 362.336 47.8885 362.597 47.928C362.691 47.9417 362.785 47.9722 362.871 47.969C363.426 47.9512 363.98 47.9333 364.521 47.9032C364.774 47.8889 364.928 47.8978 365.136 47.9344C365.631 48.0241 365.645 48.021 366.346 47.9906C366.559 47.981 366.793 47.9637 366.993 47.9757C367.194 47.9876 367.355 48.0319 367.542 48.0592C367.629 48.0714 367.736 48.0881 367.83 48.0848C368.271 48.0718 368.711 48.0526 369.152 48.0349C369.566 48.0173 369.566 48.0189 370.342 48.1128C370.657 48.1522 370.984 48.1178 371.298 48.1049C371.638 48.0905 371.945 48.09 372.207 48.1495C372.468 48.2089 372.782 48.2053 373.116 48.1924C373.43 48.1796 373.75 48.1452 374.071 48.1862C374.807 48.2801 374.807 48.2817 375.261 48.2624C375.922 48.2352 376.576 48.2095 377.244 48.1853C377.331 48.182 377.445 48.2003 377.532 48.2124C377.719 48.2397 377.88 48.2855 378.081 48.296C378.281 48.3079 378.515 48.2891 378.728 48.2795C379.416 48.2491 379.463 48.2383 379.925 48.3388C380.314 48.4211 380.793 48.3005 381.155 48.3951C381.363 48.4485 381.644 48.491 382.031 48.4642C382.351 48.4422 382.685 48.4354 383.019 48.4226C383.547 48.4017 383.547 48.4032 384.216 48.4943C384.303 48.5064 384.417 48.5215 384.503 48.5183C384.944 48.5053 385.392 48.4937 385.819 48.4653C386.32 48.4322 386.641 48.49 387.016 48.5462C387.31 48.5903 387.657 48.5528 387.971 48.5369C388.312 48.5209 388.619 48.525 388.873 48.5845C389.141 48.6455 389.455 48.6372 389.789 48.6244C390.103 48.6131 390.423 48.5772 390.745 48.6196C391.434 48.7137 391.434 48.7137 391.935 48.6944C392.375 48.6767 392.816 48.6575 393.257 48.6445C393.344 48.6412 393.451 48.661 393.538 48.6747C393.725 48.702 393.886 48.7478 394.087 48.7583C394.287 48.7687 394.521 48.7483 394.741 48.7402C394.961 48.7322 395.195 48.7087 395.395 48.7176C395.596 48.7264 395.784 48.7645 395.944 48.7981C396.132 48.8377 396.306 48.842 396.559 48.8262C396.88 48.8056 397.214 48.8004 397.541 48.7891C397.722 48.818 397.909 48.8469 398.083 48.8788C398.264 48.9123 398.458 48.9089 398.705 48.8977C399.526 48.8594 399.533 48.864 400.222 48.9581C400.536 49.0005 400.863 48.9646 401.177 48.9533C401.511 48.9405 401.825 48.9338 402.086 48.9948C402.341 49.0527 402.655 49.0598 402.989 49.0408C403.202 49.0282 403.429 49.0201 403.65 49.0151C403.75 49.0134 403.87 49.0193 403.944 49.0315C404.299 49.0954 404.647 49.1532 405.134 49.1109C405.562 49.1224 405.777 49.248 406.291 49.2225C406.725 49.2003 407.179 49.1949 407.607 49.1665C408 49.1412 408.282 49.1838 408.483 49.2372C408.845 49.3318 409.351 49.2019 409.713 49.295C409.92 49.3484 410.188 49.3909 410.589 49.3672C411.029 49.3418 411.17 49.3738 411.298 49.4704C411.372 49.5256 411.359 49.5702 411.226 49.6134C411.093 49.6582 410.946 49.6508 410.732 49.6005C410.484 49.544 410.19 49.5338 409.836 49.5467C409.489 49.5596 409.274 49.4801 408.986 49.4499C408.699 49.4181 408.359 49.4725 408.058 49.4315C407.348 49.3359 407.348 49.3359 406.867 49.3552C406.54 49.3681 406.2 49.3748 405.879 49.3969C405.499 49.4236 405.251 49.3764 404.99 49.3339C404.896 49.3187 404.802 49.2896 404.722 49.2913C403.954 49.3157 403.179 49.3386 402.418 49.3783C402.018 49.399 401.803 49.344 401.536 49.3061C401.442 49.2924 401.341 49.2649 401.261 49.2682C400.6 49.2908 399.946 49.3196 399.285 49.3469C399.158 49.3886 399.018 49.4287 398.899 49.4735C398.772 49.5198 398.599 49.5401 398.345 49.539C397.924 49.5397 397.511 49.605 397.089 49.5243C396.654 49.4421 396.62 49.4467 396.2 49.4674C395.666 49.4945 395.098 49.4893 394.597 49.5501C394.511 49.561 394.417 49.5904 394.418 49.6119C394.411 49.6257 394.552 49.6454 394.639 49.6576C394.933 49.6939 395.273 49.6396 395.567 49.6775C395.762 49.7017 395.922 49.7383 396.116 49.7641C396.197 49.7747 396.317 49.773 396.424 49.7712C396.537 49.7695 396.644 49.7586 396.751 49.7599C396.851 49.7613 396.958 49.7703 397.039 49.784C397.407 49.8417 397.795 49.8948 398.123 49.9634C398.445 50.0305 398.745 49.9838 399.065 49.9802C400.349 50.0855 400.349 50.0871 401.211 50.0518C401.424 50.0437 401.645 50.0341 401.865 50.0353C401.959 50.0351 402.046 50.0626 402.14 50.0778C402.407 50.1234 402.662 50.1645 403.036 50.1392C403.356 50.1172 403.697 50.112 404.024 50.0976C404.465 50.0799 404.465 50.0799 405.214 50.1754C405.401 50.1997 405.602 50.1962 405.842 50.1835C406.049 50.1724 406.263 50.1951 406.41 50.2394C406.471 50.2577 406.451 50.2885 406.472 50.3146C405.81 50.3403 405.143 50.3584 404.502 50.3963C404.088 50.4201 403.9 50.3544 403.626 50.3195C403.532 50.3074 403.431 50.2814 403.345 50.2847C402.69 50.3088 402.036 50.3361 401.382 50.3679C401.301 50.3712 401.202 50.4067 401.195 50.4282C401.182 50.4682 401.35 50.5063 401.59 50.5043C401.911 50.5022 402.225 50.4756 402.513 50.538C402.754 50.5929 403.055 50.617 403.408 50.5918C403.622 50.5776 403.849 50.5772 404.063 50.5646C404.63 50.5267 405.145 50.5335 405.573 50.6372C405.901 50.6643 406.222 50.6376 406.535 50.6233C406.769 50.6121 406.996 50.6009 407.163 50.6298C407.518 50.6907 407.866 50.7515 408.354 50.7092C408.882 50.7513 409.284 50.8412 409.726 50.9142C409.933 50.9492 410.094 50.9689 410.334 50.9454C410.434 50.936 410.554 50.9358 410.661 50.931C410.882 50.923 411.115 50.8995 411.316 50.9084C411.516 50.9188 411.684 50.9631 411.864 50.9904C411.951 51.0041 412.052 51.0269 412.139 51.0252C412.473 51.017 412.8 51.0011 413.127 50.9882C413.454 50.9769 413.781 50.9656 414.109 50.9542C414.383 50.9937 414.664 51.0332 414.938 51.0726C415.379 51.055 415.82 51.0373 416.254 51.0212C416.742 51.0019 416.741 51.0034 417.444 51.0975C417.759 51.1399 418.092 51.1117 418.393 51.0912C418.893 51.0581 419.228 51.1159 419.583 51.1767C419.657 51.1889 419.79 51.1963 419.877 51.19C420.224 51.1679 420.525 51.1843 420.779 51.2407C420.96 51.2803 421.141 51.2985 421.361 51.2904C422.129 51.2599 422.897 51.2278 423.665 51.2003C423.759 51.1971 423.866 51.2108 423.953 51.2229C424.635 51.3154 424.642 51.32 425.143 51.2946C425.59 51.2723 426.004 51.2623 426.359 51.3462C426.433 51.3645 426.547 51.3905 426.627 51.3888C427.174 51.3725 427.729 51.3546 428.27 51.3275C428.517 51.3148 428.69 51.3191 428.885 51.3541C429.132 51.3983 429.353 51.4517 429.761 51.431C430.889 51.3722 430.896 51.3814 432.233 51.485C432.327 51.4926 432.454 51.4801 432.56 51.4737C432.787 51.458 432.955 51.4792 433.155 51.5142C433.604 51.5933 433.617 51.5887 434.045 51.571C434.372 51.5566 434.713 51.553 435.033 51.5294C435.527 51.4947 435.855 51.5541 436.223 51.6103C436.518 51.6543 436.858 51.6168 437.172 51.6025C437.512 51.5865 437.82 51.5906 438.074 51.6485C438.248 51.6882 438.436 51.7093 438.656 51.7013C439.424 51.6723 440.192 51.6402 440.96 51.6112C441.053 51.608 441.167 51.6201 441.254 51.6307C442.017 51.7246 442.017 51.7292 442.771 51.6926C443.012 51.6814 443.212 51.678 443.393 51.71C443.567 51.7404 443.754 51.7692 443.935 51.7981C444.262 51.7868 444.596 51.7831 444.917 51.7642C445.164 51.7499 445.337 51.7557 445.531 51.7877C445.786 51.8287 446.001 51.9005 446.401 51.8645C446.608 51.8472 446.848 51.8514 447.055 51.8357C447.302 51.8153 447.469 51.8273 447.664 51.8669C447.905 51.9141 448.152 51.9629 448.54 51.9376C448.967 51.9092 449.421 51.9038 449.855 51.8815C450.095 51.8688 450.263 51.8808 450.457 51.9204C450.698 51.9707 450.972 52.0025 451.346 51.9819C452.107 51.9422 452.114 51.9498 452.857 52.0453C453.044 52.0696 453.244 52.0662 453.485 52.0535C453.692 52.0423 453.906 52.065 454.053 52.1093C454.194 52.1582 454.181 52.189 454.195 52.2151ZM394.496 38.4626C394.275 38.4707 394.055 38.4803 393.733 38.3472C393.712 38.3241 393.725 38.2965 393.678 38.2766C393.571 38.2353 393.404 38.2064 393.203 38.2021C392.842 38.1966 392.409 38.2496 392.416 38.2895C392.423 38.3233 392.537 38.3523 392.758 38.3796C392.851 38.3902 392.925 38.4085 393.012 38.4206C393.266 38.4555 393.468 38.5243 393.835 38.4883C393.767 38.3932 393.801 38.4408 393.835 38.4883C393.802 38.5468 393.903 38.5881 394.143 38.6045C394.21 38.609 394.31 38.6058 394.364 38.5965C394.57 38.5623 394.603 38.5162 394.448 38.3951C394.422 38.4151 394.442 38.4504 394.502 38.4595C394.563 38.4686 394.709 38.4607 394.783 38.4498C394.969 38.4203 395.063 38.3817 395.015 38.3495C394.989 38.3327 394.861 38.3114 394.781 38.3115C394.641 38.3118 394.514 38.3458 394.496 38.4626ZM448.732 56.1852C448.244 56.2153 447.683 56.2055 447.196 56.2662C447.109 56.2772 447.023 56.305 447.016 56.3265C447.01 56.3403 447.144 56.3601 447.224 56.3707C447.405 56.3949 447.605 56.3869 447.839 56.3788C448.193 56.3674 448.401 56.4378 448.675 56.4726C448.762 56.4832 448.876 56.4907 448.969 56.4875C449.51 56.4681 450.044 56.4472 450.585 56.4248C450.679 56.42 450.779 56.409 450.859 56.3951C451.125 56.3501 451.098 56.3209 450.837 56.2876C450.55 56.2512 450.322 56.1901 450.027 56.1615C449.606 56.1207 449.179 56.1768 448.732 56.1852ZM410.806 57.3726C410.479 57.3855 410.159 57.3983 409.831 57.4112C409.725 57.416 409.611 57.4177 409.511 57.424C409.304 57.4351 409.151 57.4677 409.051 57.5185C409.205 57.5582 409.393 57.5809 409.6 57.576C409.927 57.5662 410.247 57.5457 410.575 57.5405C410.929 57.5337 411.137 57.6025 411.411 57.6374C411.498 57.648 411.605 57.6493 411.705 57.6507C412.199 57.6559 412.499 57.5755 412.404 57.4636C412.336 57.3761 412.082 57.3243 411.775 57.3356C411.454 57.3469 411.127 57.3598 410.806 57.3726ZM450.989 53.9106C451.069 53.8843 451.155 53.8658 451.195 53.8427C451.314 53.7641 451.267 53.7058 451.046 53.6447C450.777 53.5699 450.451 53.6212 450.15 53.6294C450.077 53.631 449.997 53.6634 449.957 53.6835C449.931 53.6974 449.931 53.7266 449.971 53.7342C450.299 53.7951 450.647 53.8513 450.989 53.9106ZM392.98 49.473C392.659 49.4859 392.332 49.4957 392.011 49.5131C391.931 49.5179 391.858 49.5472 391.812 49.5672C391.725 49.6043 391.819 49.6548 392.093 49.6589C392.407 49.6645 392.734 49.6378 393.062 49.625C393.476 49.6089 393.722 49.5516 393.568 49.5027C393.42 49.4554 393.22 49.4465 392.98 49.473ZM41.2813 46.8007C41.495 46.7926 41.7154 46.7861 41.929 46.775C42.1293 46.7639 42.2827 46.7298 42.3823 46.6789C42.2148 46.6393 42.0274 46.6181 41.8204 46.6231C41.4931 46.6329 41.1726 46.6457 40.8522 46.6616C40.6519 46.6712 40.4586 46.7053 40.4125 46.7576C40.3662 46.7977 40.8139 46.8199 41.2813 46.8007ZM364.685 46.0024C364.772 46.0161 364.859 46.0436 364.946 46.0435C365.159 46.0431 365.38 46.0335 365.58 46.0178C365.667 46.0115 365.733 45.9837 365.773 45.9621C365.8 45.9483 365.793 45.9237 365.753 45.9115C365.558 45.8381 364.783 45.8655 364.657 45.9503C364.644 45.9656 364.678 45.9855 364.685 46.0024ZM343.505 37.6263C343.525 37.6508 343.532 37.6754 343.559 37.6999C343.613 37.7459 343.761 37.7795 343.975 37.8021C344.141 37.7634 344.228 37.7203 344.221 37.6742C344.214 37.6496 344.193 37.6251 344.166 37.6005C344.112 37.5545 343.965 37.521 343.751 37.4983C343.584 37.5355 343.504 37.5786 343.505 37.6263ZM466.472 57.5433C466.412 57.5633 466.352 57.5834 466.286 57.602C466.467 57.6462 466.634 57.6597 466.761 57.6349C466.841 57.6194 466.887 57.5963 466.947 57.5762C466.766 57.532 466.605 57.52 466.472 57.5433ZM462.319 57.7594C462.406 57.7731 462.487 57.7914 462.58 57.8004C462.734 57.8155 462.874 57.7892 462.98 57.7337C462.893 57.72 462.813 57.7017 462.719 57.6926C462.566 57.6776 462.426 57.7039 462.319 57.7594ZM464.948 57.4737C464.902 57.5107 464.996 57.5412 465.243 57.5669C465.303 57.5468 465.383 57.5283 465.423 57.5067C465.489 57.4712 465.375 57.4392 465.134 57.415C465.068 57.4336 465.008 57.4536 464.948 57.4737ZM450.825 55.8421C450.779 55.879 450.873 55.9096 451.12 55.9353C451.18 55.9152 451.26 55.8966 451.3 55.875C451.366 55.8396 451.252 55.8075 451.012 55.7834C450.945 55.8019 450.885 55.822 450.825 55.8421ZM431.48 45.0046C431.42 45.0247 431.36 45.0447 431.293 45.0633C431.474 45.1075 431.641 45.1211 431.768 45.0963C431.848 45.0808 431.894 45.0576 431.954 45.0376C431.773 44.9933 431.613 44.9813 431.48 45.0046ZM413.004 39.2693C413.165 39.2798 413.298 39.258 413.411 39.201C413.324 39.1873 413.244 39.169 413.15 39.1599C412.996 39.1449 412.856 39.1712 412.75 39.2267C412.837 39.2419 412.924 39.2556 413.004 39.2693ZM403.226 38.9252C403.167 38.9453 403.107 38.9654 403.04 38.9839C403.221 39.0282 403.388 39.0417 403.515 39.0169C403.595 39.0014 403.641 38.9783 403.701 38.9582C403.52 38.914 403.36 38.9035 403.226 38.9252ZM336.931 37.6361C336.872 37.6562 336.812 37.6763 336.745 37.6949C336.926 37.7391 337.093 37.7526 337.22 37.7278C337.3 37.7123 337.346 37.6892 337.406 37.6691C337.225 37.6249 337.065 37.6144 336.931 37.6361ZM7.07024 50.7086C6.98322 50.6949 6.89628 50.6813 6.81593 50.666C6.6227 50.7079 6.56306 50.7464 6.67031 50.7754C6.73734 50.7937 6.8376 50.8043 6.92461 50.8179C7.12452 50.7761 7.17082 50.7392 7.07024 50.7086Z" fill="#FFE492"/>
<path d="M239.065 8.61006C238.297 8.64057 237.536 8.67875 236.768 8.69851C236.361 8.70843 236.215 8.77475 236.048 8.83651C235.915 8.88591 235.762 8.90153 235.515 8.91118C233.431 8.99005 231.355 9.07353 229.278 9.15546C229.017 9.13593 228.89 9.10389 228.949 9.06537C228.983 9.04226 229.062 9.00986 229.143 9.00665C230.565 8.94735 231.98 8.88652 233.409 8.8395C233.817 8.82651 233.93 8.7587 234.136 8.70303C234.203 8.68447 234.256 8.65672 234.342 8.64582C234.429 8.63337 234.556 8.6347 234.67 8.63143C236.967 8.5399 239.264 8.44991 241.561 8.35837C241.822 8.3779 241.949 8.40995 241.889 8.44846C241.856 8.47157 241.776 8.50398 241.696 8.50719C240.815 8.54097 239.94 8.57475 239.065 8.61006Z" fill="#FFE492"/>
<path d="M659.873 15.6937C659.526 15.7127 659.085 15.7396 658.723 15.6511C658.549 15.6084 658.362 15.5949 658.135 15.6045C657.807 15.6204 657.474 15.6333 657.14 15.6431C657.053 15.6448 656.939 15.628 656.852 15.6144C656.665 15.587 656.504 15.5412 656.303 15.5293C656.103 15.5173 655.863 15.5515 655.655 15.5442C655.381 15.5339 655.267 15.4926 655.34 15.4541C655.38 15.4325 655.46 15.4016 655.547 15.3969C656.782 15.3379 656.789 15.3379 657.137 15.3926C657.404 15.4352 657.652 15.4824 658.033 15.4556C658.353 15.4335 658.694 15.4283 659.021 15.4139C659.475 15.3947 659.475 15.3963 660.211 15.4918C660.398 15.5161 660.599 15.5142 660.839 15.5C661.046 15.4888 661.247 15.5131 661.414 15.5543C661.308 15.6067 661.155 15.6408 660.948 15.6504C660.614 15.6663 660.287 15.6776 659.873 15.6937Z" fill="#FFE492"/>
<path d="M647.57 15.2503C648.412 15.2166 649.26 15.1875 650.101 15.1492C650.448 15.1333 650.722 15.1497 650.964 15.2015C651.225 15.2578 651.519 15.2527 651.839 15.2414C652.04 15.235 652.234 15.2592 652.368 15.3019C652.421 15.3187 652.408 15.3495 652.429 15.374C651.694 15.4029 650.953 15.4333 650.212 15.4592C650.125 15.4624 650.018 15.4472 649.937 15.4351C649.757 15.4093 649.603 15.3635 649.409 15.3546C648.994 15.3338 648.581 15.376 648.16 15.3844C647.96 15.3878 647.765 15.3651 647.631 15.3239C647.578 15.304 647.591 15.2748 647.57 15.2503Z" fill="#FFE492"/>
<path d="M343.189 2.91843C344.064 2.88313 344.938 2.84938 345.813 2.81407C346.074 2.83513 346.194 2.86565 346.141 2.90415C346.108 2.92726 346.029 2.95966 345.948 2.96287C344.199 3.03501 342.45 3.10408 340.707 3.17314C340.446 3.15207 340.325 3.12156 340.378 3.08306C340.411 3.05995 340.491 3.02755 340.571 3.02434C341.439 2.98751 342.314 2.95374 343.189 2.91843Z" fill="#FFE492"/>
<path d="M208.384 11.6857C207.99 11.6894 207.577 11.7467 207.135 11.7046C207.049 11.6971 206.928 11.6729 206.935 11.6591C206.948 11.6361 207.027 11.607 207.114 11.5976C207.494 11.5588 207.969 11.5534 208.161 11.4461C208.254 11.3909 208.427 11.3722 208.661 11.3611C208.908 11.3485 209.082 11.3528 209.276 11.3845C209.53 11.4254 209.745 11.5014 210.145 11.461C210.165 11.4854 210.212 11.5129 210.193 11.5358C210.173 11.5588 210.086 11.5803 210.006 11.5973C209.933 11.6127 209.833 11.6266 209.74 11.6314C209.299 11.6505 208.858 11.6665 208.384 11.6857Z" fill="#FFE492"/>
<path d="M555.894 10.5456C556.221 10.5328 556.562 10.5261 556.882 10.504C557.136 10.4867 557.296 10.4972 557.497 10.5336C557.839 10.5975 557.859 10.5913 558.694 10.5991C558.787 10.6005 558.901 10.6233 558.955 10.6431C558.988 10.6538 558.942 10.683 558.902 10.6984C558.842 10.7185 558.756 10.7447 558.675 10.7448C558.148 10.7503 557.615 10.8418 557.099 10.7383C556.838 10.6866 556.55 10.6626 556.196 10.6862C555.983 10.7004 555.756 10.7069 555.535 10.7134C555.322 10.7199 555.101 10.7034 554.967 10.6576C554.772 10.5905 554.886 10.5642 555.233 10.5682C555.453 10.5709 555.674 10.5537 555.894 10.5456Z" fill="#FFE492"/>
<path d="M677.087 20.7271C677.508 20.7111 677.928 20.692 678.355 20.6791C678.442 20.6759 678.549 20.6925 678.63 20.7031C678.951 20.7484 678.905 20.8264 678.919 20.8952C678.927 20.967 678.186 21.0263 677.871 20.978C677.523 20.9235 677.209 20.8614 676.728 20.8959C676.541 20.9084 676.321 20.8813 676.2 20.8372C676.019 20.7733 676.119 20.7471 676.459 20.7511C676.66 20.7538 676.873 20.7366 677.087 20.7271Z" fill="#FFE492"/>
<path d="M464.77 0.557959C465.204 0.540362 465.638 0.513583 466.072 0.511312C466.326 0.509349 466.453 0.5597 466.394 0.596585C466.36 0.619631 466.281 0.651953 466.2 0.655154C465.332 0.693412 464.465 0.725545 463.596 0.760738C463.342 0.739713 463.215 0.707749 463.275 0.670864C463.308 0.647818 463.388 0.617028 463.468 0.612294C463.902 0.5901 464.336 0.575555 464.77 0.557959Z" fill="#FFE492"/>
<path d="M668.716 15.803C669.137 15.7869 669.564 15.7632 669.985 15.7548C670.205 15.7514 670.379 15.7863 670.406 15.8261C670.42 15.8445 670.313 15.8768 670.227 15.8846C669.626 15.9377 668.978 15.945 668.351 15.9721C668.15 15.9801 667.936 15.956 667.815 15.9133C667.634 15.8477 667.734 15.823 668.075 15.827C668.289 15.8282 668.502 15.811 668.716 15.803Z" fill="#FFE492"/>
<path d="M566.934 10.7246C567.148 10.7166 567.368 10.6964 567.575 10.7021C567.796 10.7094 567.936 10.7534 568.004 10.7976C568.078 10.8478 568.072 10.8951 568.005 10.938C567.899 11.0114 567.792 11.0086 567.545 10.9601C567.163 10.8845 567.137 10.8937 566.382 10.898C566.295 10.8982 566.188 10.8755 566.121 10.8557C566.02 10.8254 566.073 10.778 566.307 10.7501C566.48 10.73 566.721 10.7326 566.934 10.7246Z" fill="#FFE492"/>
<path d="M653.055 15.3416C653.369 15.3288 653.683 15.3083 653.996 15.3078C654.217 15.3059 654.391 15.3408 654.412 15.379C654.418 15.3974 654.319 15.4282 654.239 15.4375C653.858 15.4794 653.431 15.4832 653.017 15.4977C652.823 15.5042 652.609 15.48 652.488 15.4374C652.307 15.3734 652.414 15.3442 652.741 15.3528C652.842 15.3557 652.948 15.3463 653.055 15.3416Z" fill="#FFE492"/>
<path d="M603.61 13.5971C603.143 13.6162 602.701 13.594 602.734 13.5542C602.78 13.5021 602.974 13.4681 603.174 13.4585C603.494 13.4427 603.815 13.4299 604.142 13.4201C604.349 13.4137 604.536 13.4363 604.704 13.4758C604.604 13.525 604.451 13.5604 604.251 13.5715C604.044 13.5825 603.824 13.589 603.61 13.5971Z" fill="#FFE492"/>
<path d="M600.542 13.4092C600.856 13.3964 601.17 13.376 601.484 13.3754C601.704 13.3735 601.878 13.4084 601.899 13.4466C601.906 13.465 601.806 13.4958 601.726 13.5051C601.346 13.5471 600.918 13.5509 600.504 13.5653C600.311 13.5718 600.097 13.5477 599.976 13.505C599.795 13.4411 599.901 13.4118 600.229 13.4204C600.329 13.4233 600.436 13.414 600.542 13.4092Z" fill="#FFE492"/>
<path d="M563.145 10.7218C563.458 10.709 563.772 10.6885 564.086 10.6865C564.306 10.6846 564.48 10.7195 564.501 10.7577C564.508 10.7761 564.408 10.8053 564.328 10.8162C563.948 10.8581 563.52 10.8619 563.106 10.8764C562.913 10.8828 562.699 10.8587 562.578 10.8161C562.397 10.7521 562.503 10.7229 562.831 10.7315C562.931 10.7344 563.038 10.725 563.145 10.7218Z" fill="#FFE492"/>
<path d="M561.388 10.6361C561.722 10.6233 561.829 10.6154 561.935 10.6152C562.136 10.6149 562.343 10.6329 562.464 10.6771C562.645 10.741 562.538 10.7596 562.211 10.7632C561.79 10.767 561.377 10.7999 560.956 10.8067C560.735 10.8101 560.561 10.7737 560.547 10.7355C560.54 10.7171 560.64 10.6848 560.72 10.6785C561.001 10.6551 561.308 10.6408 561.388 10.6361Z" fill="#FFE492"/>
<path d="M597.72 1.61283C597.506 1.62084 597.279 1.64263 597.079 1.63533C596.812 1.62508 596.704 1.58399 596.771 1.54566C596.81 1.52419 596.883 1.49349 596.964 1.48876C597.391 1.46663 597.825 1.45212 598.252 1.4361C598.506 1.4586 598.62 1.49051 598.554 1.52884C598.514 1.55031 598.441 1.57948 598.361 1.58574C598.154 1.60138 597.933 1.60482 597.72 1.61283Z" fill="#FFE492"/>
<path d="M338.402 3.1098C338.609 3.10792 338.796 3.12746 338.957 3.16538C338.857 3.21443 338.711 3.24676 338.511 3.26085C338.41 3.26714 338.297 3.27191 338.19 3.27362C337.983 3.27703 337.796 3.25596 337.635 3.21804C337.735 3.16898 337.888 3.13664 338.081 3.12256C338.181 3.11628 338.295 3.11456 338.402 3.1098Z" fill="#FFE492"/>
<path d="M666.428 15.8014C666.421 15.7571 666.828 15.706 667.195 15.7069C667.389 15.7081 667.59 15.7292 667.704 15.7702C667.878 15.8326 667.778 15.8572 667.451 15.8532C667.25 15.8504 667.037 15.8768 666.837 15.8725C666.609 15.8714 666.476 15.838 666.428 15.8014Z" fill="#FFE492"/>
<path d="M568.874 10.9048C568.867 10.888 568.834 10.8682 568.853 10.8529C568.979 10.7688 569.747 10.7415 569.948 10.8144C569.982 10.8281 569.996 10.851 569.969 10.8648C569.929 10.8862 569.856 10.9138 569.776 10.92C569.569 10.9356 569.356 10.9436 569.142 10.9455C569.048 10.9457 568.961 10.9199 568.874 10.9048Z" fill="#FFE492"/>
<path d="M210.759 11.4368C209.971 11.4702 209.958 11.4671 210.097 11.3906C210.223 11.3216 210.456 11.28 210.797 11.2794C210.897 11.2793 211.004 11.276 211.091 11.282C211.184 11.2895 211.318 11.3045 211.338 11.3228C211.379 11.3578 211.266 11.3962 211.066 11.4225C210.979 11.4349 210.865 11.432 210.759 11.4368Z" fill="#FFE492"/>
<path d="M348.268 2.87228C348.035 2.89863 347.834 2.88982 347.687 2.84123C347.539 2.79265 347.772 2.73425 348.18 2.71982C348.286 2.71659 348.4 2.70419 348.5 2.71013C348.6 2.71453 348.701 2.73266 348.761 2.75087C348.868 2.78121 348.802 2.82254 348.589 2.85801C348.502 2.87189 348.375 2.86905 348.268 2.87228Z" fill="#FFE492"/>
<path d="M665.039 15.6913C665.098 15.6714 665.158 15.6515 665.224 15.6331C665.471 15.6586 665.578 15.6889 665.512 15.724C665.472 15.7454 665.392 15.7638 665.333 15.7837C665.086 15.7582 664.986 15.7264 665.039 15.6913Z" fill="#FFE492"/>
<path d="M221.497 28.7045C221.497 28.6862 221.59 28.657 221.663 28.6508C221.803 28.6399 221.976 28.661 222.097 28.7034C222.264 28.7641 222.164 28.7963 221.858 28.7801C221.645 28.7682 221.498 28.738 221.497 28.7045Z" fill="#FFE492"/>
<path d="M571.581 9.48335C571.668 9.49693 571.755 9.51052 571.835 9.52563C571.722 9.58226 571.583 9.60689 571.436 9.59189C571.343 9.58289 571.263 9.56472 571.176 9.55115C571.288 9.49452 571.421 9.47295 571.581 9.48335Z" fill="#FFE492"/>
<path d="M569.266 9.42036C569.398 9.39725 569.558 9.4092 569.746 9.45311C569.686 9.47304 569.633 9.49601 569.56 9.51138C569.433 9.536 569.267 9.52407 569.086 9.47862C569.139 9.46023 569.199 9.4403 569.266 9.42036Z" fill="#FFE492"/>
<path d="M567.495 9.4917C567.582 9.50528 567.669 9.51886 567.749 9.53398C567.636 9.5906 567.503 9.61522 567.35 9.60023C567.257 9.59124 567.177 9.57307 567.09 9.55949C567.202 9.50287 567.335 9.47977 567.495 9.4917Z" fill="#FFE492"/>
<path d="M566.193 9.41437C566.293 9.44466 566.24 9.48128 566.048 9.52273C565.961 9.50917 565.861 9.49869 565.794 9.48054C565.687 9.45179 565.74 9.41362 565.939 9.37216C566.019 9.38725 566.106 9.40082 566.193 9.41437Z" fill="#FFE492"/>
</svg>
